<svg width="292" height="97" viewBox="0 0 292 97" fill="none" xmlns="http://www.w3.org/2000/svg">
<path d="M211.002 62.9228C210.968 62.957 210.938 62.9934 210.906 63.0298C209.208 61.4914 209.057 58.7355 206.709 57.7046C206.387 57.4725 205.975 57.3041 205.753 56.9969C201.211 50.7136 196.677 44.4213 192.173 38.1107C191.341 36.9456 191.59 35.6825 191.901 34.3422C193.323 28.2364 195.957 22.5403 197.966 16.6371C199.013 13.5603 200.353 10.4108 202.463 7.76637C203.094 6.9767 203.975 6.25302 203.33 5.12427C202.649 3.93407 201.656 3.10571 200.168 3.10571C197.671 3.10571 196.672 4.9149 195.911 6.80602C195.127 8.75176 194.592 10.7976 193.947 12.798C192.852 13.9176 192.219 15.3536 191.999 16.8055C191.471 20.3192 189.958 23.4847 188.824 26.7868C188.506 27.7153 188.465 28.9055 187.182 29.042C185.831 29.1854 185.326 28.0748 184.761 27.1281C183.735 25.41 182.523 23.7737 181.711 21.9623C180.017 18.1823 176.277 15.7359 175.102 11.651C174.409 10.6793 174.034 9.52322 173.307 8.57198C172.685 8.14642 172.066 7.72314 171.444 7.29758C171.293 7.29758 171.142 7.29758 170.991 7.29758C170.621 7.29758 170.271 7.33171 169.944 7.39771C168.753 7.45005 167.687 7.93478 166.917 8.94064C166.151 9.93968 167.468 10.6747 167.928 11.4985C171.124 14.0883 172.292 18.0458 174.569 21.2545C176.826 25.7058 180.392 29.3401 182.507 33.8802C182.703 34.4264 182.962 34.8656 183.62 34.5925C183.62 34.6016 183.62 34.613 183.62 34.6221V34.6266C183.62 34.6266 183.62 34.6266 183.62 34.6243C185.47 37.7489 184.233 40.498 182.564 43.1947C182.678 45.0426 181.24 46.4672 181.117 48.2513C181.078 48.2536 181.039 48.2513 180.998 48.2581C180.083 48.7133 179.789 49.6349 179.587 50.4747C178.104 56.6601 175.09 62.2561 172.804 68.1297C172.77 68.6667 172.735 69.2015 172.699 69.7386C171.165 73.3934 169.26 76.9139 168.86 80.9601C168.728 82.296 169.039 83.4839 170.289 83.9664C171.599 84.4716 173.092 84.7196 173.851 82.9355C176.087 76.9663 178.323 70.9948 180.559 65.0256C180.849 65.1257 181.133 65.103 181.409 64.9528C183.705 60.6767 185.047 56.0343 186.636 51.4874C186.702 51.1938 186.718 50.882 186.839 50.6135C187.681 48.7497 187.409 45.5751 189.535 45.3111C191.842 45.0266 192.532 48.0897 193.7 49.8762C196.265 53.8041 198.584 57.9026 201.819 61.3617C201.819 61.5278 201.853 61.6848 201.922 61.835C202.116 62.4336 202.312 63.0321 202.507 63.6329C204 65.2509 205.557 66.8143 206.965 68.5006C208.056 69.8069 209.562 70.3804 210.982 71.1063C212.55 71.9074 213.796 71.0175 214.674 69.8933C216.291 67.8224 214.539 66.3956 213.446 64.8822C212.772 64.0516 212.466 62.7613 210.993 62.9228H211.002Z" fill="white"/>
<path d="M46.8097 66.0542C45.1728 62.4449 43.5359 58.8334 41.8989 55.2241C42.1275 54.1113 41.3274 53.3853 40.925 52.4887C39.8024 49.9854 37.7082 47.8826 37.9963 44.7922C38.7485 36.7294 41.8623 29.1876 43.1198 21.2431C43.0992 21.0565 43.1038 20.8699 43.1312 20.6856C43.122 19.0584 43.1106 17.429 43.1015 15.8019C43.0832 15.6153 43.1106 15.4355 43.1883 15.2626C43.3781 15.2739 43.5656 15.258 43.7485 15.2148C44.9739 11.9036 46.0713 8.56968 45.5226 4.95357C42.235 2.59821 40.0471 3.133 38.8308 7.06089C37.8957 10.0785 37.6168 13.2986 37.0452 16.43C36.2725 17.7681 37.2487 19.3475 36.4554 20.6833C36.4371 21.0702 36.4165 21.457 36.3982 21.8462C35.989 22.6336 36.1262 23.4483 36.2793 24.2653C36.3754 24.3427 36.4737 24.395 36.5766 24.4291C36.5606 24.436 36.5445 24.4405 36.5285 24.4473C36.2999 28.8417 34.6195 32.9449 33.8765 37.2459C33.5359 39.2122 32.1801 39.2031 30.9821 37.6214C30.9981 37.1982 31.0142 36.7749 31.0302 36.3539C28.8925 32.1438 25.8473 28.5413 23.0924 24.7523C22.3653 23.751 21.5354 22.5858 20.0242 22.5039C19.823 22.2991 19.6219 22.0965 19.4229 21.8917C18.5245 18.6511 15.1637 17.6748 13.3164 15.3058C12.9278 15.2739 12.5414 15.2421 12.1527 15.2102C9.37038 13.2554 6.67262 11.1185 3.22498 10.4289C1.98127 10.1809 0.671261 10.4085 0.154572 11.717C-0.398697 13.1188 0.627822 13.9608 1.73665 14.5594C3.74853 15.6449 5.79471 16.6735 7.82717 17.7249C14.2926 23.1047 19.9442 29.1945 24.2972 36.4176C24.2926 36.8272 24.2881 37.2346 24.2835 37.6442C26.684 39.3646 27.411 42.2912 29.2195 44.4327C30.4495 45.8891 30.5981 47.605 30.2254 49.2913C29.599 52.1109 28.7348 54.8782 27.9689 57.6659C27.85 57.7342 27.7311 57.8025 27.6145 57.873C26.9629 58.7469 26.8235 59.8779 26.1559 60.7404C25.749 61.4914 25.9844 62.0489 26.6817 62.4677C26.5994 63.8012 26.3045 65.0711 25.5432 66.1999C25.486 66.1999 25.4243 66.2499 25.3626 66.3478C25.294 66.4547 25.3329 66.5731 25.4769 66.7073C23.9977 69.3517 24.7179 72.6083 23.0809 75.2071L23.0901 75.1957C21.5994 80.2274 20.1134 85.2589 18.6182 90.2883C17.9872 92.4115 17.1299 94.6872 19.224 96.3735C21.2085 97.9734 22.722 96.1414 24.2766 95.1537L24.272 95.1629C24.9488 94.4824 25.0722 93.5312 25.4815 92.7165L25.47 92.7392C26.1376 88.1423 27.9963 83.8685 29.1326 79.3967H29.1166C30.6278 72.5127 32.9849 65.8312 34.0457 58.8402C34.2583 58.0505 33.6593 56.8467 34.9488 56.61C35.9113 56.4325 36.2519 57.3633 36.652 58.0437C37.3059 59.1565 38.1746 60.2079 38.5541 61.4095C39.7773 65.2782 42.1344 68.512 44.1966 71.9142C44.2377 71.9984 44.2857 72.0826 44.3475 72.1622C44.7727 73.8849 45.8678 75.1957 47.0475 76.4406C48.106 77.5557 49.4023 78.1929 50.8129 77.2553C52.2716 76.2858 52.0269 74.7588 51.3731 73.4639C50.0676 70.8719 48.721 68.2867 46.8075 66.0565L46.8097 66.0542ZM44.384 70.3143C44.4138 70.328 44.4366 70.3462 44.4641 70.3599C44.4366 70.369 44.4115 70.3735 44.3818 70.3849C44.3818 70.3621 44.3818 70.3371 44.3818 70.3143H44.384Z" fill="white"/>
<path d="M287.374 0.672974C283.348 -0.341994 279.192 -0.403438 275.385 1.8609C271.08 3.77477 266.958 5.95718 263.865 9.64611C261.3 10.5996 260.31 13.0915 258.682 14.9508C257.836 15.9157 257.255 17.5633 255.865 17.3631C254.377 17.1491 253.933 15.5061 253.531 14.1406C251.926 13.0369 251.055 11.3165 249.905 9.83272C243.863 4.63727 236.88 1.93827 228.869 1.83359C225.689 1.79035 223.195 2.84856 221.49 5.57486C220.678 9.39123 220.959 13.2213 221.343 17.0513C222.413 18.0549 221.542 19.6888 222.546 20.7152C223.408 23.7419 223.367 27.0007 224.894 29.859C226.236 34.4969 226.892 39.417 230.42 43.156C232.42 47.7643 235.564 51.5738 238.94 55.2218C239.441 56.1412 239.942 57.0606 240.442 57.9823C242.166 59.0132 242.623 61.0294 243.904 62.404C245.339 63.0457 245.6 64.7229 246.75 65.6173C248.225 68.5916 249.8 71.4613 247.669 74.9136C247.027 75.9558 247.052 77.6467 248.005 78.912C248.188 79.11 248.369 79.308 248.552 79.5059C248.552 79.5059 248.556 79.5059 248.558 79.5059C251.887 80.6757 252.594 80.2592 254.823 75.8102C257.082 70.0686 260.106 64.7297 263.449 59.5571C263.803 59.3044 264.157 59.0541 264.512 58.8015C265.751 56.7989 266.99 54.7963 268.227 52.7936C268.184 52.5797 268.142 52.3681 268.099 52.1542C268.906 50.4064 270.664 49.2868 271.268 47.4025C271.309 47.3638 271.341 47.3228 271.371 47.2841C271.713 46.8813 272.056 46.4785 272.399 46.078C272.811 45.682 273.222 45.2838 273.634 44.8878C274.718 42.2685 277.232 40.4843 277.905 37.626C279.484 35.0749 281.165 32.5785 282.628 29.9637C286.153 23.6577 289.985 17.4859 291.649 10.3265C292.747 5.60444 291.236 1.64243 287.376 0.670699L287.374 0.672974ZM235.218 41.6973C235.063 41.5516 234.91 41.406 234.754 41.2603C234.567 40.3751 234.231 39.5626 233.618 38.8799C233.673 38.8299 233.725 38.7752 233.773 38.7138C234.302 37.5395 233.609 36.586 233.22 35.5665C230.751 29.0807 228.625 22.4993 227.708 15.588C227.642 15.0578 227.633 14.4934 227.425 14.0519C227.482 13.3487 227.233 12.6887 226.297 12.1335C226.297 11.3984 226.297 10.6634 226.295 9.9283C226.355 9.98519 226.416 10.0398 226.485 10.0967C228.853 8.5788 231.009 6.61486 234.059 6.53749C234.11 6.39184 234.164 6.25757 234.222 6.13241C234.567 6.16199 234.914 6.1893 235.262 6.21661C235.472 6.40777 235.685 6.59893 235.895 6.79009C237.232 7.53653 238.703 7.78913 240.202 7.91429C242.104 8.99071 243.68 10.4517 245.221 11.9514C245.559 12.468 245.84 13.0233 246.092 13.6013C246.972 15.0396 248.088 16.3253 248.844 17.8387C249.027 18.0549 249.226 18.2551 249.457 18.4235C249.464 18.4281 249.468 18.4349 249.475 18.4395C249.434 18.6693 249.443 18.9083 249.489 19.1563C250.495 21.2067 251.4 23.2276 251.622 25.5989C251.885 28.4116 253.682 28.9646 256.288 27.3352C256.764 26.5478 257.434 25.831 257.399 24.8684C257.411 24.8706 257.422 24.8752 257.434 24.8775C259.19 24.9025 260.211 23.7328 260.906 22.4242C262.059 20.2509 263.81 18.6693 265.573 17.0627C266.773 15.679 268.346 14.6163 269.167 12.9095C269.235 12.625 269.242 12.3497 269.162 12.0902C271.846 11.7511 273.865 10.3994 275.234 8.05084C275.234 8.02125 275.227 7.99167 275.223 7.96208C276.457 7.6321 277.578 7.07911 278.552 6.23027C279.747 6.21434 280.95 6.27806 282.136 6.16655C282.315 6.15062 282.482 6.14151 282.642 6.13924C283.126 6.36908 283.659 6.39412 284.189 6.43736C284.974 6.83788 285.312 7.62983 285.298 8.73583C285.243 8.89057 285.189 9.04532 285.131 9.1978C284.889 10.7976 284.74 12.4225 283.883 13.8585C283.442 14.3659 283.017 14.8848 282.772 15.5243C282.521 16.5279 282.244 17.5224 281.72 18.4235C281.613 18.6625 281.517 18.9083 281.451 19.1631C281.377 19.5022 281.288 19.8413 281.236 20.1804C281.078 20.5718 280.993 20.9883 280.993 21.4366C280.806 21.5208 280.637 21.6482 280.479 21.8098C279.935 22.5471 279.555 23.3596 279.35 24.2471C279.281 24.3973 279.221 24.5498 279.167 24.7045C278.968 24.7955 278.769 24.8866 278.568 24.9776C278.007 26.1541 277.527 27.3807 276.869 28.5004C275.426 30.9468 273.705 33.2316 272.443 35.7827C272.047 35.967 271.704 36.3106 271.339 36.5837C271.028 36.9001 270.753 37.246 270.538 37.6328C269.864 38.9641 269.347 40.3569 268.403 41.5744C267.585 42.6326 266.894 43.8933 267.498 45.3498C267.278 45.2633 267.047 45.2451 266.805 45.2997C264.43 47.2454 262.882 49.7396 261.887 52.6047C261.858 53.003 261.862 53.4058 261.869 53.8086C261.117 54.6734 260.157 55.3993 259.809 56.5326C259.37 56.6851 259.013 56.9491 258.728 57.3132C258.478 57.6705 258.307 58.0596 258.216 58.4875C258.204 58.6832 258.168 58.8652 258.11 59.0382C257.585 59.4114 257.285 59.9485 257.164 60.613C257.095 60.7177 257.029 60.8246 256.97 60.9361C256.775 61.3116 256.517 61.6348 256.227 61.9352C253.357 64.3019 253.117 64.0152 250.307 60.6403C249.994 60.2648 249.67 59.8961 249.345 59.5297C249.121 59.1656 248.917 58.7924 248.78 58.3942C248.238 57.6386 247.747 56.7898 246.714 56.9332C245.488 53.1191 242.002 51.121 239.64 48.2194C238.716 47.3638 238.2 46.2623 237.758 45.1199C237.308 44.2324 237.052 43.2402 236.316 42.5074C235.977 42.1797 235.609 41.9157 235.214 41.695L235.218 41.6973Z" fill="white"/>
<path d="M134.512 6.65344C134.512 6.65344 134.501 6.64206 134.496 6.63751C133.847 5.82281 133.277 4.89432 132.047 4.88294C131.988 4.71681 131.926 4.55296 131.86 4.39138C130.061 3.51296 128.275 2.16574 126.398 4.24801C125.822 4.29353 125.246 4.33904 124.672 4.38683C124.057 4.37545 123.442 4.36407 122.829 4.35042C121.277 5.30394 119.318 5.42911 117.93 6.71944C115.703 7.14727 114.946 9.49126 113.088 10.3947C112.281 11.0046 111.476 11.6145 110.669 12.2267C110.44 12.4656 110.429 12.7159 110.63 12.9776C110.653 12.9913 110.676 13.005 110.696 13.0186C110.294 13.5625 109.894 14.1064 109.491 14.6503C109.366 14.7982 109.281 14.9666 109.238 15.1578C109.345 15.1669 109.446 15.201 109.537 15.2556C109.519 15.2784 109.498 15.3012 109.48 15.3216C109.4 15.267 109.318 15.2124 109.238 15.1578C106.771 15.8018 106.382 18.2072 105.161 19.9095C104.727 19.6865 104.325 19.7502 103.952 20.0574C102.742 22.0509 101.336 22.0259 99.5898 20.6514C98.2546 19.6 97.0612 18.4416 95.9867 17.1445C95.6414 17.0739 95.2939 17.0057 94.9464 16.9351C88.4101 12.5225 81.4119 10.4994 73.5679 12.832C73.1449 12.8183 72.7242 12.8047 72.3013 12.791C71.1719 13.2871 70.7124 14.4318 69.9076 15.242C69.9076 16.043 69.8116 16.8577 69.9259 17.6406C71.8943 31.1515 80.909 39.5694 91.3456 46.9563C91.3456 46.9563 91.3456 46.9563 91.3456 46.9586C92.818 47.7528 93.6433 49.4391 95.3831 49.8647C99.2606 53.2509 103.14 56.6372 107.018 60.0235C106.97 60.6903 107.331 61.1841 107.763 61.6119C110.02 63.8353 109.716 66.3226 107.848 68.3458C106.115 70.2187 105.273 72.3305 104.514 74.6313C103.787 76.8364 103.031 79.0279 105.607 80.4525C107.608 81.5585 109.848 80.1613 111.167 77.1846C111.49 76.4564 111.739 75.6781 111.887 74.8975C112.07 73.9531 112.585 73.4934 113.515 73.4274C113.819 74.4219 113.389 75.5939 114.251 76.4541C114.251 76.4541 114.251 76.4541 114.254 76.4564C114.245 76.6384 114.256 76.8182 114.29 76.998C114.391 79.3465 113.588 81.5494 113.241 83.8229C112.928 85.8596 113.291 87.9101 115.619 88.8249C117.838 89.6988 118.945 87.9101 120.216 86.7244C120.98 86.0144 121.014 84.9152 120.998 83.8889C120.948 80.5823 121.243 77.2529 120.351 74.0009C119.649 73.0906 120.55 71.8458 119.713 70.9651C119.297 69.957 118.883 68.9488 118.467 67.9407C118.264 67.9407 118.06 67.9452 117.857 67.9475C116.643 65.979 116.446 64.0924 118.037 62.1581C118.87 61.1477 119.171 59.8323 119.393 58.5374C119.393 58.5374 119.393 58.5352 119.395 58.5329C121.41 56.8898 122.004 54.4571 122.946 52.2155C123.995 50.7158 124.832 49.1183 125.189 47.3045L125.833 46.0711C129.425 39.3805 132.69 32.567 133.78 24.9433C133.954 24.6998 134.032 24.445 134.062 24.1855C135.079 21.416 135.948 18.56 136.046 15.6607C136.147 12.6408 137.358 9.24093 134.512 6.65572V6.65344ZM124.366 34.3785C123.931 35.7917 122.921 37.1343 123.764 38.7C123.723 38.7842 123.682 38.8662 123.643 38.9504C121.259 40.161 121.426 42.6734 120.877 44.8194C120.886 44.874 120.895 44.9264 120.907 44.9787C119.21 45.3884 118.874 46.681 119.135 48.365C119.128 48.3764 119.121 48.3877 119.114 48.3991C118.904 48.3149 118.684 48.2899 118.451 48.3331C116.732 49.8374 115.552 51.6193 115.516 53.986C115.518 54.184 115.523 54.382 115.525 54.5822C115.417 54.6369 115.312 54.7006 115.207 54.7688C112.626 58.3212 112.502 58.2894 109.448 54.9145C107.018 52.2314 104.306 49.8192 101.727 47.2772C100.991 46.5512 100.175 45.9709 99.0434 46.2167C98.9611 46.2463 98.8833 46.2827 98.8102 46.3214C95.4243 43.4267 92.0201 40.5479 88.6616 37.6213C86.085 35.3752 83.1883 33.4318 81.4645 30.3436C80.5363 29.1671 81.0027 26.839 78.5861 26.8936C78.5176 26.9118 78.4535 26.9346 78.3918 26.9619C78.385 26.9551 78.3781 26.9505 78.3712 26.9437C78.122 26.4248 77.8706 25.906 77.6214 25.3871C77.5756 25.0025 77.5985 24.5997 77.6671 24.1833C77.5848 23.1342 77.1115 22.2557 76.4577 21.4592C76.4394 21.4365 76.4211 21.4137 76.4005 21.391C76.8738 20.4101 76.6977 19.361 76.6017 18.321C76.7663 18.0661 76.9538 17.8295 77.1687 17.6156C77.8065 17.0216 78.6022 16.7235 79.4092 16.4458C79.6607 16.3321 79.9122 16.2478 80.1636 16.1955C80.8609 16.4185 81.5765 16.4777 82.299 16.4754C82.3401 16.4936 82.3836 16.5096 82.4247 16.53C82.9666 16.7075 83.4764 16.9692 84.0205 17.1422C84.3132 17.2128 84.6081 17.2651 84.9076 17.281C85.2665 17.297 85.6232 17.3106 85.9821 17.3061C87.0978 17.8909 88.2135 18.4735 89.3292 19.0584C89.4343 19.163 89.5304 19.2791 89.6058 19.4111C90.0928 19.6546 90.5294 19.9868 90.9478 20.3464C91.2519 20.6445 91.556 20.9426 91.86 21.243C91.9903 22.9658 93.3644 23.6917 94.5463 24.5838C97.315 26.6774 97.4041 27.2464 96.309 30.5302C95.8266 31.9776 94.8756 33.7481 97.1549 34.6493C97.1824 34.6834 97.2121 34.7175 97.2418 34.7517C97.1001 35.8531 97.8408 36.4448 98.7301 36.5199C100.907 36.702 103.092 36.7293 105.262 37.057C105.861 37.148 106.384 36.6951 106.631 36.0739C106.638 36.0329 106.641 35.9919 106.643 35.951C108.376 36.3765 109.153 34.8313 108.812 33.9051C107.8 31.1378 107.505 28.2886 107.139 25.4417C107.285 25.1982 107.438 24.957 107.598 24.7226C107.871 24.2857 108.124 23.8396 108.323 23.364C108.348 23.2548 108.38 23.1501 108.417 23.0477C109.357 22.6107 109.809 21.7141 110.159 20.7196C112.137 18.7329 114.114 16.7485 116.09 14.7618C116.16 14.8255 116.238 14.8824 116.33 14.9302C117.482 15.2943 118.266 14.582 119.062 13.9721C120.934 12.5362 123.104 11.6919 125.278 10.8794C128.179 9.7962 129.233 10.4766 129.183 13.624C129.121 17.5587 128.378 21.4046 127.015 25.1186C126.938 25.3985 126.876 25.6784 126.846 25.9697C126.871 27.4967 126.364 28.9122 125.945 30.3482C125.852 30.5985 125.767 30.8511 125.715 31.1151C125.591 32.0436 125.143 32.8423 124.69 33.6343C124.562 33.8732 124.448 34.119 124.366 34.3785ZM133.204 21.309C133.2 21.309 133.197 21.3136 133.193 21.3159C133.188 21.2931 133.184 21.2703 133.179 21.2453C133.197 21.259 133.22 21.2726 133.239 21.2863C133.227 21.2954 133.218 21.3068 133.204 21.3181C133.204 21.3159 133.204 21.3136 133.202 21.3113L133.204 21.309ZM133.652 22.4697C133.671 22.4674 133.687 22.4628 133.707 22.4605C133.707 22.4765 133.707 22.4901 133.707 22.5061C133.689 22.4924 133.671 22.481 133.652 22.4697Z" fill="white"/>
</svg>