<svg width="24" height="24" viewBox="0 0 24 24" fill="none" xmlns="http://www.w3.org/2000/svg">
<g clip-path="url(#clip0_47_116)">
<path d="M12 2C6.48 2 2 6.48 2 12C2 17.52 6.48 22 12 22C17.52 22 22 17.52 22 12C22 6.48 17.52 2 12 2ZM12 20C7.59 20 4 16.41 4 12C4 7.59 7.59 4 12 4C16.41 4 20 7.59 20 12C20 16.41 16.41 20 12 20Z" fill="#F2F0FF"/>
<path d="M16 9.31425L14.6857 8L12 10.6857L9.31425 8L8 9.31424L10.6858 12L8 14.6857L9.31424 16L12 13.3142L14.6858 16L16 14.6857L13.3142 12L16 9.31425Z" fill="#F2F0FF"/>
</g>
<defs>
<clipPath id="clip0_47_116">
<rect width="24" height="24" fill="white"/>
</clipPath>
</defs>
</svg>
