<svg width="372" height="148" viewBox="0 0 372 148" fill="none" xmlns="http://www.w3.org/2000/svg">
<path d="M1.61976 54.957C2.57955 54.957 3.47109 54.9239 4.35641 54.9818C4.57361 54.9962 4.91491 55.2836 4.95628 55.4925C5.91815 60.4818 9.37879 62.8162 13.9792 63.7963C18.9312 64.8508 23.9039 64.8901 28.7815 63.3497C34.1328 61.6583 37.0184 57.8496 37.4652 52.3661C37.732 49.0744 37.5148 45.7434 37.5148 42.3792C37.4279 42.4723 37.3266 42.5467 37.2687 42.648C34.6106 47.2714 30.4901 49.7443 25.3354 50.6127C20.5798 51.4129 15.8367 51.3344 11.2839 49.5996C4.88389 47.1597 1.3281 42.3586 0.310385 35.6779C-0.277075 31.8216 -0.0971133 27.9819 1.42739 24.3283C3.79171 18.665 8.12112 15.2988 14.064 13.9982C18.8174 12.9582 23.575 13.045 28.2603 14.4324C32.1118 15.5738 35.1402 17.8234 37.1694 21.3343C37.2645 21.4998 37.3866 21.6507 37.6534 22.0332V14.6661H40.9465C40.9651 14.9866 41.0003 15.2864 41.0003 15.5862C41.0023 26.9626 41.0334 38.339 40.9713 49.7133C40.961 51.6549 40.7417 53.6398 40.2908 55.5256C38.8904 61.3771 34.9809 64.8818 29.2738 66.3416C23.2275 67.8862 17.1171 67.8366 11.0915 66.1865C5.45273 64.6441 2.17206 60.6968 1.61976 54.957ZM19.9138 48.3093C21.9202 48.1129 23.3392 48.0695 24.7251 47.8234C30.0826 46.8723 34.2734 44.2484 36.3254 39.0358C37.0535 37.1852 37.4052 35.1279 37.5955 33.1325C38.3319 25.4511 34.4824 19.4631 27.4577 17.2507C23.3992 15.9728 19.2394 15.8198 15.1127 16.802C9.72836 18.0839 5.82506 21.1834 4.09785 26.5966C3.1939 29.4314 3.17322 32.3551 3.60968 35.2705C4.51362 41.2999 7.76327 45.4497 13.6917 47.1928C15.8801 47.8358 18.2052 48.0137 19.9138 48.3073V48.3093Z" fill="url(#paint0_linear_11_98)"/>
<path d="M280.25 22.3144V0.00408936H283.462V51.4377H280.266V43.626C280.099 43.6984 279.977 43.7108 279.95 43.7687C277.732 48.4706 273.819 50.9766 268.912 52.0663C264.632 53.0154 260.319 52.9554 256.182 51.446C248.856 48.7704 245.025 43.2807 244.061 35.6944C243.591 31.9932 243.868 28.3128 245.374 24.8721C248.475 17.7903 254.081 14.1078 261.705 13.4234C264.922 13.1339 268.099 13.4544 271.152 14.6267C274.778 16.0183 277.639 18.3258 279.652 21.6548C279.757 21.8306 279.877 21.998 279.993 22.1676C280.01 22.1903 280.047 22.2007 280.248 22.3165L280.25 22.3144ZM263.848 16.2954C263.195 16.2954 262.539 16.2623 261.887 16.2995C255.13 16.6924 249.557 21.1813 247.859 27.618C247.176 30.2067 247.126 32.8389 247.36 35.4938C247.95 42.2303 252.395 47.6559 258.783 49.1984C262.822 50.1744 266.858 49.9138 270.782 48.543C274.576 47.2197 277.333 44.6847 279.019 41.0518C281.077 36.6104 281.114 32.0036 279.861 27.3637C278.669 22.9554 275.873 19.8373 271.762 17.8834C269.264 16.6944 266.606 16.223 263.85 16.2954H263.848Z" fill="url(#paint1_linear_11_98)"/>
<path d="M184.549 14.6372H187.778V22.3724C187.95 22.2938 188.033 22.2835 188.053 22.2421C190.534 17.0481 194.935 14.54 200.384 13.6467C204.236 13.0161 208.108 13.1484 211.808 14.4945C218.63 16.9778 222.49 21.9898 223.773 29.0282C224.346 32.1691 224.257 35.3326 223.496 38.4424C221.659 45.9708 215.29 51.4998 207.533 52.4179C201.784 53.0981 196.448 52.147 191.911 48.3714C190.383 47.0977 189.162 45.456 187.845 44.0314L187.844 148H184.549L184.549 14.6372ZM220.837 33.0499C220.715 31.7865 220.684 30.5066 220.459 29.264C219.292 22.8727 215.681 18.5864 209.349 16.7896C206.558 15.9977 203.696 16.13 200.843 16.5001C194.309 17.35 189.425 21.6301 187.896 27.9758C187.011 31.6521 187.156 35.3409 188.244 38.9655C189.328 42.5716 191.485 45.4291 194.772 47.2694C200.467 50.4577 206.434 50.7617 212.286 47.9145C218.38 44.9515 220.788 39.6293 220.837 33.0499Z" fill="url(#paint2_linear_11_98)"/>
<path d="M330.624 33.7447H292.766C292.903 34.9274 292.952 36.0129 293.165 37.0654C294.462 43.4979 299.081 48.0427 305.605 49.273C309.449 49.9987 313.282 50.0049 317.026 48.6961C321.217 47.2322 324.013 44.2795 325.753 40.2951C326.133 39.4225 326.58 39.0772 327.507 39.191C328.115 39.2654 328.742 39.2054 329.532 39.2054C329.379 39.6789 329.28 40.0594 329.137 40.4233C326.117 48.1978 320.271 52.052 312.076 52.5647C308.404 52.7943 304.766 52.5172 301.303 51.1525C294.624 48.5224 290.836 43.562 289.771 36.5361C289.175 32.6054 289.37 28.7078 290.969 24.9963C293.358 19.4467 297.424 15.7558 303.316 14.1989C307.728 13.0327 312.185 12.9831 316.602 14.1182C324.034 16.0267 329.255 22.1036 330.26 29.8823C330.421 31.1311 330.5 32.3883 330.626 33.7468L330.624 33.7447ZM326.814 30.8396C326.102 26.0529 324.332 22.0044 320.348 19.2089C316.873 16.7711 312.92 16.1053 308.76 16.2562C301.206 16.5292 295.556 20.8899 293.445 28.1351C293.192 29.0035 293.023 29.8947 292.797 30.8396H326.812H326.814Z" fill="url(#paint3_linear_11_98)"/>
<path d="M92.2684 40.0242H95.4746C95.6566 40.8471 95.8097 41.6142 95.9958 42.3751C96.6619 45.1066 98.2753 47.1391 100.929 48.0323C103.124 48.7705 105.432 49.3205 107.733 49.5624C111.578 49.9656 115.448 49.9036 119.182 48.6588C123.286 47.2921 125.179 44.325 124.57 40.3323C124.279 38.4217 123.28 36.8875 121.526 36.2031C119.662 35.4753 117.664 34.9997 115.68 34.6813C111.23 33.9638 106.748 33.451 102.294 32.7666C101.155 32.5909 100.032 32.1711 98.96 31.7224C92.4131 28.9745 92.7152 21.1194 96.211 17.6084C98.4491 15.3609 101.196 14.2236 104.253 13.7543C108.829 13.0492 113.392 13.1112 117.856 14.4552C123.222 16.0721 126.248 19.8953 126.517 25.2981H123.292C123.178 24.7047 123.077 24.0989 122.945 23.5013C122.295 20.5962 120.605 18.4913 117.792 17.5381C112.494 15.7434 107.091 15.6359 101.761 17.3314C98.2071 18.4624 96.6309 21.2951 97.2349 24.7709C97.5555 26.6194 98.6291 28.0047 100.325 28.6126C102.247 29.2991 104.278 29.7437 106.299 30.0869C110.809 30.8519 115.345 31.4495 119.856 32.2021C120.853 32.3676 121.828 32.8183 122.75 33.2629C126.039 34.8467 127.886 37.4541 128.012 41.1325C128.141 44.877 126.79 47.9145 123.486 49.9181C121.176 51.3199 118.611 51.963 115.963 52.2752C111.144 52.8438 106.332 52.8976 101.616 51.5495C96.5936 50.1124 93.2778 47.0295 92.3904 41.7073C92.3345 41.3682 92.3035 41.027 92.2746 40.6838C92.258 40.4853 92.2725 40.2868 92.2725 40.0242H92.2684Z" fill="url(#paint4_linear_11_98)"/>
<path d="M131.093 40.0242H134.342C134.522 40.8409 134.677 41.6101 134.863 42.371C135.529 45.1024 137.141 47.137 139.793 48.0303C141.987 48.7684 144.296 49.3205 146.596 49.5624C150.441 49.9677 154.312 49.9036 158.045 48.6609C162.149 47.2942 164.046 44.3291 163.438 40.3364C163.148 38.4259 162.149 36.8916 160.395 36.2052C158.531 35.4773 156.533 35.0018 154.55 34.6813C150.1 33.9638 145.618 33.451 141.164 32.7666C140.024 32.5909 138.901 32.1711 137.828 31.7224C131.279 28.9786 131.579 21.1214 135.072 17.6105C137.308 15.3609 140.055 14.2257 143.113 13.7543C147.688 13.0492 152.251 13.1112 156.715 14.4552C162.081 16.0701 165.099 19.8808 165.38 25.2961H162.137C162.064 24.8391 162.009 24.3677 161.916 23.9025C161.27 20.6686 159.433 18.3714 156.277 17.381C151.232 15.7971 146.087 15.7103 141.011 17.1783C137.211 18.2763 135.474 21.1648 136.096 24.7667C136.417 26.6153 137.488 28.0027 139.185 28.6106C141.106 29.2991 143.138 29.7437 145.156 30.0848C149.666 30.8499 154.204 31.4371 158.713 32.2042C159.808 32.3903 160.863 32.9217 161.882 33.4055C168.733 36.6477 168.152 46.3844 162.708 49.7071C160.271 51.1938 157.615 51.9423 154.827 52.2731C150.007 52.8459 145.196 52.8976 140.479 51.5495C135.457 50.1145 132.137 47.0336 131.254 41.7114C131.165 41.18 131.146 40.6362 131.088 40.0263L131.093 40.0242Z" fill="url(#paint5_linear_11_98)"/>
<path d="M67.8888 13.3966C75.0356 13.3511 81.0653 15.7496 85.3182 21.6859C92.5435 31.7721 88.7974 49.0021 72.8491 52.1553C68.0998 53.094 63.3774 52.8149 58.8411 50.9664C50.6746 47.6374 45.9976 39.1847 47.0691 30.4198C48.1179 21.8513 55.1364 13.9031 66.1326 13.4007C66.716 13.3738 67.3034 13.3966 67.8888 13.3966ZM66.6146 16.2417C64.5171 16.2417 61.7246 16.7503 59.2817 18.0488C52.952 21.4088 50.1326 26.7889 50.3167 33.8542C50.505 41.1428 55.4694 47.3376 62.5562 49.1117C65.3301 49.8064 68.135 49.8995 70.9606 49.5314C85.2934 47.6643 88.9505 31.8713 82.2775 22.9079C78.6989 18.1026 73.7241 16.2231 66.6125 16.2417H66.6146Z" fill="url(#paint6_linear_11_98)"/>
<path d="M371.897 14.5875C371.655 15.1085 371.507 15.4476 371.341 15.7805C365.605 27.3471 359.859 38.9096 354.152 50.4928C353.757 51.2971 353.289 51.4729 352.437 51.5576C350.836 51.7148 350.06 51.1255 349.351 49.6719C343.826 38.3451 338.193 27.0721 332.594 15.7805C332.428 15.4476 332.281 15.1085 332.045 14.5957C333.262 14.5957 334.348 14.5275 335.417 14.6392C335.717 14.6702 336.046 15.1871 336.22 15.5489C340.379 24.1402 344.521 32.7417 348.664 41.3412C349.603 43.289 350.544 45.2367 351.487 47.1845C351.616 47.4492 351.767 47.7014 351.978 48.0943C352.228 47.6084 352.418 47.2589 352.592 46.8992C357.618 36.476 362.653 26.059 367.647 15.6192C368.036 14.8046 368.472 14.4861 369.355 14.573C370.137 14.6516 370.931 14.5895 371.897 14.5895V14.5875Z" fill="url(#paint7_linear_11_98)"/>
<path d="M172.81 14.635H175.998V51.4212H172.81V14.635Z" fill="url(#paint8_linear_11_98)"/>
<path d="M172.819 0H176.009V7.50156H172.819V0Z" fill="url(#paint9_linear_11_98)"/>
<defs>
<linearGradient id="paint0_linear_11_98" x1="20.5049" y1="13.2945" x2="20.5049" y2="67.4633" gradientUnits="userSpaceOnUse">
<stop offset="0.3" stop-color="#F0DC26"/>
<stop offset="0.895" stop-color="#8D8329"/>
</linearGradient>
<linearGradient id="paint1_linear_11_98" x1="263.657" y1="0.00408936" x2="263.657" y2="52.6959" gradientUnits="userSpaceOnUse">
<stop offset="0.3" stop-color="#F0DC26"/>
<stop offset="0.895" stop-color="#8D8329"/>
</linearGradient>
<linearGradient id="paint2_linear_11_98" x1="204.347" y1="13.2829" x2="204.347" y2="148" gradientUnits="userSpaceOnUse">
<stop offset="0.3" stop-color="#F0DC26"/>
<stop offset="0.895" stop-color="#8D8329"/>
</linearGradient>
<linearGradient id="paint3_linear_11_98" x1="310.044" y1="13.2949" x2="310.044" y2="52.637" gradientUnits="userSpaceOnUse">
<stop offset="0.3" stop-color="#F0DC26"/>
<stop offset="0.895" stop-color="#8D8329"/>
</linearGradient>
<linearGradient id="paint4_linear_11_98" x1="110.144" y1="13.3093" x2="110.144" y2="52.6538" gradientUnits="userSpaceOnUse">
<stop offset="0.3" stop-color="#F0DC26"/>
<stop offset="0.895" stop-color="#8D8329"/>
</linearGradient>
<linearGradient id="paint5_linear_11_98" x1="148.997" y1="13.3093" x2="148.997" y2="52.6543" gradientUnits="userSpaceOnUse">
<stop offset="0.3" stop-color="#F0DC26"/>
<stop offset="0.895" stop-color="#8D8329"/>
</linearGradient>
<linearGradient id="paint6_linear_11_98" x1="67.8808" y1="13.3876" x2="67.8808" y2="52.6794" gradientUnits="userSpaceOnUse">
<stop offset="0.3" stop-color="#F0DC26"/>
<stop offset="0.895" stop-color="#8D8329"/>
</linearGradient>
<linearGradient id="paint7_linear_11_98" x1="351.971" y1="14.5591" x2="351.971" y2="51.5823" gradientUnits="userSpaceOnUse">
<stop offset="0.3" stop-color="#F0DC26"/>
<stop offset="0.895" stop-color="#8D8329"/>
</linearGradient>
<linearGradient id="paint8_linear_11_98" x1="174.404" y1="14.635" x2="174.404" y2="51.4212" gradientUnits="userSpaceOnUse">
<stop offset="0.3" stop-color="#F0DC26"/>
<stop offset="0.895" stop-color="#8D8329"/>
</linearGradient>
<linearGradient id="paint9_linear_11_98" x1="174.414" y1="0" x2="174.414" y2="7.50156" gradientUnits="userSpaceOnUse">
<stop offset="0.3" stop-color="#F0DC26"/>
<stop offset="0.895" stop-color="#8D8329"/>
</linearGradient>
</defs>
</svg>