<svg width="418" height="65" viewBox="0 0 418 65" fill="none" xmlns="http://www.w3.org/2000/svg">
<path d="M151.173 53.9567H151.116C150.946 54.3902 150.701 54.8049 150.381 55.2007C150.061 55.5777 149.665 55.917 149.193 56.2186C148.741 56.5202 148.223 56.7558 147.638 56.9255C147.054 57.0951 146.413 57.1799 145.716 57.1799C144.17 57.1799 142.973 56.8501 142.125 56.1903C141.277 55.5118 140.853 54.475 140.853 53.0802C140.853 52.2319 141.022 51.5439 141.361 51.0162C141.701 50.4695 142.125 50.0454 142.634 49.7438C143.162 49.4234 143.737 49.1972 144.359 49.0652C144.999 48.9333 145.612 48.839 146.196 48.7825L147.865 48.6411C148.637 48.5846 149.241 48.4997 149.674 48.3866C150.126 48.2547 150.466 48.0851 150.692 47.8777C150.918 47.6515 151.06 47.3688 151.116 47.0295C151.173 46.6902 151.201 46.2661 151.201 45.7571C151.201 45.3613 151.126 44.9937 150.975 44.6544C150.824 44.3151 150.588 44.0136 150.268 43.7497C149.947 43.4858 149.533 43.2784 149.024 43.1276C148.515 42.9768 147.893 42.9014 147.158 42.9014C145.857 42.9014 144.802 43.2219 143.991 43.8628C143.199 44.5036 142.766 45.4744 142.69 46.775H141.616C141.691 45.1728 142.2 43.9759 143.143 43.1842C144.104 42.3736 145.461 41.9684 147.214 41.9684C148.967 41.9684 150.24 42.3171 151.031 43.0145C151.842 43.6931 152.247 44.5885 152.247 45.7006V54.1546C152.247 54.3619 152.247 54.5693 152.247 54.7766C152.266 54.984 152.304 55.1725 152.36 55.3421C152.417 55.5118 152.511 55.6531 152.643 55.7662C152.775 55.8605 152.963 55.9076 153.208 55.9076C153.397 55.9076 153.661 55.8793 154 55.8228V56.7276C153.717 56.803 153.425 56.8407 153.124 56.8407C152.69 56.8407 152.341 56.7841 152.077 56.671C151.832 56.5579 151.644 56.4071 151.512 56.2186C151.38 56.0301 151.286 55.8134 151.229 55.5683C151.192 55.3044 151.173 55.0217 151.173 54.7201V53.9567ZM151.173 48.5846C150.909 48.905 150.503 49.1218 149.957 49.2349C149.429 49.348 148.835 49.4328 148.176 49.4893L146.366 49.659C145.838 49.7155 145.31 49.8004 144.783 49.9135C144.255 50.0077 143.774 50.1773 143.341 50.4224C142.926 50.6674 142.587 51.0067 142.323 51.4403C142.059 51.855 141.927 52.4016 141.927 53.0802C141.927 54.1546 142.266 54.9557 142.945 55.4835C143.623 55.9924 144.556 56.2469 145.744 56.2469C146.969 56.2469 147.94 56.0301 148.656 55.5966C149.373 55.1442 149.919 54.6353 150.296 54.0698C150.673 53.4854 150.909 52.9294 151.003 52.4016C151.116 51.855 151.173 51.4874 151.173 51.2989V48.5846Z" fill="url(#paint0_linear_223_140)"/>
<path d="M138.111 36.653V56.8408H137.036V36.653H138.111Z" fill="url(#paint1_linear_223_140)"/>
<path d="M133.362 36.653V56.8408H132.287V36.653H133.362Z" fill="url(#paint2_linear_223_140)"/>
<path d="M127.538 39.5652V36.653H128.613V39.5652H127.538ZM127.538 56.8408V42.3078H128.613V56.8408H127.538Z" fill="url(#paint3_linear_223_140)"/>
<path d="M125.31 43.2408H122.144V53.3912C122.144 53.9756 122.21 54.4374 122.341 54.7767C122.473 55.116 122.671 55.3799 122.935 55.5684C123.218 55.738 123.548 55.8417 123.925 55.8794C124.321 55.9171 124.773 55.9265 125.282 55.9076V56.8407C124.735 56.8784 124.198 56.8784 123.67 56.8407C123.161 56.7841 122.709 56.6428 122.313 56.4166C121.917 56.1715 121.597 55.8134 121.352 55.3422C121.126 54.8709 121.031 54.2206 121.069 53.3912V43.2408H118.383V42.3077H121.069V0H122.144V42.3077H125.31V43.2408Z" fill="url(#paint4_linear_223_140)"/>
<path d="M104.101 49.5742C104.101 48.5374 104.243 47.5667 104.525 46.6619C104.827 45.7383 105.261 44.9278 105.826 44.2303C106.392 43.5329 107.089 42.9863 107.918 42.5904C108.748 42.1757 109.7 41.9684 110.774 41.9684C111.848 41.9684 112.8 42.1757 113.63 42.5904C114.459 42.9863 115.157 43.5329 115.722 44.2303C116.288 44.9278 116.712 45.7383 116.994 46.6619C117.296 47.5667 117.447 48.5374 117.447 49.5742C117.447 50.6109 117.296 51.5911 116.994 52.5147C116.712 53.4383 116.288 54.2488 115.722 54.9463C115.157 55.6249 114.459 56.1715 113.63 56.5862C112.8 56.982 111.848 57.1799 110.774 57.1799C109.7 57.1799 108.748 56.982 107.918 56.5862C107.089 56.1715 106.392 55.6249 105.826 54.9463C105.261 54.2488 104.827 53.4383 104.525 52.5147C104.243 51.5911 104.101 50.6109 104.101 49.5742ZM105.176 49.5742C105.176 50.4412 105.298 51.28 105.543 52.0906C105.788 52.8823 106.146 53.5891 106.618 54.2111C107.089 54.8332 107.673 55.3327 108.371 55.7097C109.068 56.0678 109.869 56.2469 110.774 56.2469C111.679 56.2469 112.48 56.0678 113.177 55.7097C113.875 55.3327 114.459 54.8332 114.93 54.2111C115.402 53.5891 115.76 52.8823 116.005 52.0906C116.25 51.28 116.372 50.4412 116.372 49.5742C116.372 48.7071 116.25 47.8777 116.005 47.086C115.76 46.2755 115.402 45.5592 114.93 44.9372C114.459 44.3151 113.875 43.8251 113.177 43.4669C112.48 43.0899 111.679 42.9014 110.774 42.9014C109.869 42.9014 109.068 43.0899 108.371 43.4669C107.673 43.8251 107.089 44.3151 106.618 44.9372C106.146 45.5592 105.788 46.2755 105.543 47.086C105.298 47.8777 105.176 48.7071 105.176 49.5742Z" fill="url(#paint5_linear_223_140)"/>
<path d="M101.06 46.8033C101.004 46.1624 100.834 45.5969 100.552 45.1068C100.288 44.6167 99.9389 44.2115 99.5054 43.891C99.0718 43.5706 98.5629 43.3255 97.9786 43.1559C97.4131 42.9863 96.8005 42.9014 96.1407 42.9014C95.236 42.9014 94.4349 43.0899 93.7374 43.4669C93.04 43.8251 92.4557 44.3151 91.9844 44.9372C91.5132 45.5404 91.1551 46.2378 90.91 47.0295C90.665 47.8023 90.5424 48.6034 90.5424 49.4328C90.5424 50.413 90.6555 51.3177 90.8817 52.1471C91.1079 52.9765 91.4566 53.7022 91.9279 54.3242C92.3991 54.9274 92.9834 55.3987 93.6809 55.738C94.3783 56.0772 95.1983 56.2469 96.1407 56.2469C96.8193 56.2469 97.4414 56.1338 98.0068 55.9076C98.5912 55.6814 99.1001 55.3704 99.5337 54.9745C99.986 54.5787 100.354 54.1075 100.636 53.5608C100.919 52.9953 101.108 52.3827 101.202 51.723H102.276C102.163 52.5901 101.928 53.3629 101.569 54.0415C101.211 54.7201 100.759 55.295 100.212 55.7662C99.6656 56.2186 99.0436 56.5673 98.3461 56.8124C97.6487 57.0574 96.9136 57.1799 96.1407 57.1799C94.9532 57.1799 93.9354 56.9726 93.0871 56.5579C92.2577 56.1244 91.5697 55.5495 91.0231 54.8332C90.4953 54.1169 90.0995 53.2969 89.8356 52.3733C89.5905 51.4308 89.468 50.4507 89.468 49.4328C89.468 48.4149 89.6094 47.4536 89.8921 46.5488C90.1937 45.644 90.6273 44.8524 91.1928 44.1738C91.7582 43.4952 92.4557 42.958 93.285 42.5621C94.1144 42.1663 95.0663 41.9684 96.1407 41.9684C96.9324 41.9684 97.6676 42.0721 98.3461 42.2794C99.0436 42.4679 99.6562 42.7601 100.184 43.1559C100.731 43.5517 101.174 44.0607 101.513 44.6827C101.852 45.2859 102.059 45.9928 102.135 46.8033H101.06Z" fill="url(#paint6_linear_223_140)"/>
<path d="M77.7532 53.9567H77.6967C77.527 54.3902 77.282 54.8049 76.9615 55.2007C76.6411 55.5777 76.2453 55.917 75.774 56.2186C75.3216 56.5202 74.8033 56.7558 74.2189 56.9255C73.6346 57.0951 72.9937 57.1799 72.2963 57.1799C70.7506 57.1799 69.5537 56.8501 68.7054 56.1903C67.8572 55.5118 67.4331 54.475 67.4331 53.0802C67.4331 52.2319 67.6027 51.5439 67.942 51.0162C68.2813 50.4695 68.7054 50.0454 69.2144 49.7438C69.7422 49.4234 70.3171 49.1972 70.9391 49.0652C71.58 48.9333 72.1926 48.839 72.7769 48.7825L74.4451 48.6411C75.218 48.5846 75.8211 48.4997 76.2547 48.3866C76.7071 48.2547 77.0464 48.0851 77.2726 47.8777C77.4987 47.6515 77.6401 47.3688 77.6967 47.0295C77.7532 46.6902 77.7815 46.2661 77.7815 45.7571C77.7815 45.3613 77.7061 44.9937 77.5553 44.6544C77.4045 44.3151 77.1689 44.0136 76.8484 43.7497C76.528 43.4858 76.1133 43.2784 75.6044 43.1276C75.0954 42.9768 74.4734 42.9014 73.7383 42.9014C72.4377 42.9014 71.3821 43.2219 70.5716 43.8628C69.7799 44.5036 69.3463 45.4744 69.2709 46.775H68.1965C68.2719 45.1728 68.7808 43.9759 69.7233 43.1842C70.6846 42.3736 72.0418 41.9684 73.7948 41.9684C75.5478 41.9684 76.8202 42.3171 77.6118 43.0145C78.4224 43.6931 78.8276 44.5885 78.8276 45.7006V54.1546C78.8276 54.3619 78.8276 54.5693 78.8276 54.7766C78.8465 54.984 78.8842 55.1725 78.9407 55.3421C78.9973 55.5118 79.0915 55.6531 79.2235 55.7662C79.3554 55.8605 79.5439 55.9076 79.789 55.9076C79.9775 55.9076 80.2413 55.8793 80.5806 55.8228V56.7276C80.2979 56.803 80.0057 56.8407 79.7041 56.8407C79.2706 56.8407 78.9219 56.7841 78.658 56.671C78.4129 56.5579 78.2244 56.4071 78.0925 56.2186C77.9606 56.0301 77.8663 55.8134 77.8098 55.5683C77.7721 55.3044 77.7532 55.0217 77.7532 54.7201V53.9567ZM77.7532 48.5846C77.4893 48.905 77.0841 49.1218 76.5374 49.2349C76.0096 49.348 75.4159 49.4328 74.7561 49.4893L72.9466 49.659C72.4188 49.7155 71.891 49.8004 71.3632 49.9135C70.8354 50.0077 70.3548 50.1773 69.9212 50.4224C69.5065 50.6674 69.1673 51.0067 68.9034 51.4403C68.6395 51.855 68.5075 52.4016 68.5075 53.0802C68.5075 54.1546 68.8468 54.9557 69.5254 55.4835C70.204 55.9924 71.137 56.2469 72.3246 56.2469C73.5498 56.2469 74.5205 56.0301 75.2368 55.5966C75.9531 55.1442 76.4997 54.6353 76.8767 54.0698C77.2537 53.4854 77.4893 52.9294 77.5836 52.4016C77.6967 51.855 77.7532 51.4874 77.7532 51.2989V48.5846Z" fill="url(#paint7_linear_223_140)"/>
<path d="M53.45 42.3077H54.5244V45.4178H54.5809C54.7694 44.8712 55.0333 44.3905 55.3726 43.9759C55.7307 43.5423 56.136 43.1748 56.5884 42.8732C57.0596 42.5716 57.5686 42.3454 58.1152 42.1946C58.6618 42.0438 59.2179 41.9684 59.7834 41.9684C60.6316 41.9684 61.3479 42.0721 61.9322 42.2794C62.5354 42.4867 63.0255 42.7601 63.4025 43.0994C63.7795 43.4386 64.0717 43.8251 64.279 44.2586C64.5052 44.6733 64.6654 45.0974 64.7597 45.5309C64.8539 45.9645 64.9105 46.3886 64.9293 46.8033C64.9482 47.1991 64.9576 47.5478 64.9576 47.8494V56.8407H63.8832V47.6515C63.8832 47.2934 63.8549 46.841 63.7983 46.2943C63.7418 45.7477 63.5721 45.2293 63.2894 44.7393C63.0255 44.2303 62.6108 43.7968 62.0453 43.4386C61.4987 43.0805 60.7353 42.9014 59.7551 42.9014C58.9257 42.9014 58.1906 43.0522 57.5497 43.3538C56.9088 43.6554 56.3622 44.0795 55.9098 44.6262C55.4574 45.154 55.1087 45.7948 54.8637 46.5488C54.6375 47.2839 54.5244 48.0945 54.5244 48.9804V56.8407H53.45V42.3077Z" fill="url(#paint8_linear_223_140)"/>
<path d="M48.9553 39.5652V36.653H50.0297V39.5652H48.9553ZM48.9553 56.8408V42.3078H50.0297V56.8408H48.9553Z" fill="url(#paint9_linear_223_140)"/>
<path d="M34.4633 49.7155V49.8852C34.4633 50.7334 34.5764 51.5439 34.8026 52.3168C35.0288 53.0896 35.3586 53.7682 35.7922 54.3525C36.2446 54.9369 36.8006 55.3987 37.4604 55.738C38.139 56.0772 38.9212 56.2469 39.8071 56.2469C41.2585 56.2469 42.4084 55.8699 43.2566 55.1159C44.1048 54.3431 44.6892 53.2781 45.0096 51.9209H46.084C45.7636 53.6174 45.0661 54.918 43.9917 55.8228C42.9362 56.7276 41.5319 57.1799 39.7789 57.1799C38.7044 57.1799 37.762 56.9914 36.9514 56.6145C36.1598 56.2186 35.4906 55.6908 34.944 55.0311C34.4162 54.3525 34.0203 53.5608 33.7564 52.6561C33.4925 51.7324 33.3606 50.7428 33.3606 49.6873C33.3606 48.6694 33.4925 47.6986 33.7564 46.775C34.0392 45.8325 34.4539 45.0126 35.0005 44.3151C35.5471 43.5989 36.2257 43.0334 37.0363 42.6187C37.8656 42.1852 38.8364 41.9684 39.9485 41.9684C40.9664 41.9684 41.8617 42.1569 42.6346 42.5339C43.4262 42.9109 44.086 43.4292 44.6138 44.089C45.1415 44.7298 45.5374 45.4838 45.8013 46.3509C46.084 47.1991 46.2254 48.1133 46.2254 49.0935C46.2254 49.1877 46.216 49.3008 46.1971 49.4328C46.1971 49.5459 46.1971 49.6401 46.1971 49.7155H34.4633ZM45.1227 48.7825C45.085 47.9908 44.953 47.2462 44.7269 46.5488C44.5007 45.8325 44.1614 45.2105 43.709 44.6827C43.2754 44.1361 42.7382 43.7025 42.0974 43.3821C41.4753 43.0617 40.759 42.9014 39.9485 42.9014C39.0814 42.9014 38.318 43.0711 37.6583 43.4104C36.9986 43.7308 36.4425 44.1644 35.9901 44.711C35.5377 45.2388 35.189 45.8608 34.944 46.5771C34.6989 47.2934 34.5481 48.0285 34.4916 48.7825H45.1227Z" fill="url(#paint10_linear_223_140)"/>
<path d="M27.5754 45.531H27.6602C27.7922 45.0598 28.0278 44.6168 28.3671 44.2021C28.7252 43.7874 29.1493 43.4293 29.6394 43.1277C30.1484 42.8261 30.7044 42.5999 31.3076 42.4491C31.9296 42.2795 32.5705 42.2041 33.2303 42.2229V43.2973C32.6648 43.2219 32.0145 43.2785 31.2793 43.467C30.563 43.6555 29.875 44.0702 29.2153 44.7111C28.9514 44.9938 28.7158 45.2671 28.5084 45.531C28.32 45.7949 28.1597 46.0871 28.0278 46.4075C27.8958 46.728 27.7922 47.0861 27.7168 47.4819C27.6414 47.8778 27.5942 48.349 27.5754 48.8956V56.8407H26.501V42.3077H27.5754V45.531Z" fill="url(#paint11_linear_223_140)"/>
<path d="M14.1363 53.9567H14.0797C13.9101 54.3902 13.665 54.8049 13.3446 55.2007C13.0241 55.5777 12.6283 55.917 12.1571 56.2186C11.7047 56.5202 11.1863 56.7558 10.602 56.9255C10.0177 57.0951 9.37677 57.1799 8.67934 57.1799C7.13368 57.1799 5.93673 56.8501 5.0885 56.1903C4.24028 55.5118 3.81616 54.475 3.81616 53.0802C3.81616 52.2319 3.98581 51.5439 4.3251 51.0162C4.66439 50.4695 5.0885 50.0454 5.59744 49.7438C6.12523 49.4234 6.70014 49.1972 7.32217 49.0652C7.96306 48.9333 8.57566 48.839 9.16 48.7825L10.8282 48.6411C11.601 48.5846 12.2042 48.4997 12.6377 48.3866C13.0901 48.2547 13.4294 48.0851 13.6556 47.8777C13.8818 47.6515 14.0232 47.3688 14.0797 47.0295C14.1363 46.6902 14.1645 46.2661 14.1645 45.7571C14.1645 45.3613 14.0891 44.9937 13.9384 44.6544C13.7876 44.3151 13.5519 44.0136 13.2315 43.7497C12.9111 43.4858 12.4964 43.2784 11.9874 43.1276C11.4785 42.9768 10.8565 42.9014 10.1213 42.9014C8.82071 42.9014 7.76514 43.2219 6.95461 43.8628C6.16293 44.5036 5.72939 45.4744 5.65399 46.775H4.57957C4.65497 45.1728 5.1639 43.9759 6.10638 43.1842C7.0677 42.3736 8.42487 41.9684 10.1779 41.9684C11.9309 41.9684 13.2032 42.3171 13.9949 43.0145C14.8054 43.6931 15.2107 44.5885 15.2107 45.7006V54.1546C15.2107 54.3619 15.2107 54.5693 15.2107 54.7766C15.2295 54.984 15.2672 55.1725 15.3238 55.3421C15.3803 55.5118 15.4746 55.6531 15.6065 55.7662C15.7385 55.8605 15.927 55.9076 16.172 55.9076C16.3605 55.9076 16.6244 55.8793 16.9637 55.8228V56.7276C16.681 56.803 16.3888 56.8407 16.0872 56.8407C15.6537 56.8407 15.3049 56.7841 15.041 56.671C14.796 56.5579 14.6075 56.4071 14.4756 56.2186C14.3436 56.0301 14.2494 55.8134 14.1928 55.5683C14.1551 55.3044 14.1363 55.0217 14.1363 54.7201V53.9567ZM14.1363 48.5846C13.8724 48.905 13.4671 49.1218 12.9205 49.2349C12.3927 49.348 11.7989 49.4328 11.1392 49.4893L9.32964 49.659C8.80186 49.7155 8.27407 49.8004 7.74629 49.9135C7.2185 50.0077 6.73784 50.1773 6.3043 50.4224C5.88961 50.6674 5.55032 51.0067 5.28642 51.4403C5.02253 51.855 4.89058 52.4016 4.89058 53.0802C4.89058 54.1546 5.22988 54.9557 5.90846 55.4835C6.58704 55.9924 7.52009 56.2469 8.70761 56.2469C9.93283 56.2469 10.9036 56.0301 11.6199 55.5966C12.3361 55.1442 12.8828 54.6353 13.2598 54.0698C13.6368 53.4854 13.8724 52.9294 13.9666 52.4016C14.0797 51.855 14.1363 51.4874 14.1363 51.2989V48.5846Z" fill="url(#paint12_linear_223_140)"/>
<path d="M1.07442 36.653V56.8408H0V36.653H1.07442Z" fill="url(#paint13_linear_223_140)"/>
<path d="M413.093 52.8239C412.996 52.8239 412.909 52.7659 412.832 52.6499C412.909 52.2439 413.006 51.6639 413.122 50.9099C413.238 50.1559 413.373 49.3053 413.528 48.3579C413.683 47.4106 413.847 46.4439 414.021 45.4579C414.214 44.4719 414.408 43.5343 414.601 42.6449C414.814 41.7363 415.017 40.9533 415.21 40.2959C415.423 39.6386 415.626 39.1843 415.819 38.9329C415.954 38.7783 416.138 38.7009 416.37 38.7009C416.525 38.7009 416.679 38.7299 416.834 38.7879C417.008 38.8459 417.095 38.9716 417.095 39.1649C417.095 39.1649 417.056 39.2713 416.979 39.4839C416.921 39.6773 416.844 39.9093 416.747 40.1799C416.67 40.4506 416.592 40.7019 416.515 40.9339C416.457 41.1466 416.418 41.2819 416.399 41.3399C415.993 42.5966 415.606 43.8629 415.239 45.1389C414.891 46.3956 414.572 47.6716 414.282 48.9669C414.147 49.5663 414.021 50.1753 413.905 50.7939C413.808 51.4126 413.683 52.0119 413.528 52.5919C413.509 52.6693 413.451 52.7273 413.354 52.7659C413.257 52.8046 413.17 52.8239 413.093 52.8239ZM412.658 57.7539C412.503 57.7539 412.349 57.6959 412.194 57.5799C412.039 57.4833 411.962 57.3479 411.962 57.1739C411.962 56.9806 412.039 56.6809 412.194 56.2749C412.368 55.8496 412.581 55.4629 412.832 55.1149C413.083 54.7669 413.315 54.5929 413.528 54.5929C413.625 54.5929 413.692 54.6413 413.731 54.7379C413.789 54.8153 413.818 54.9023 413.818 54.9989C413.818 54.9989 413.779 55.1053 413.702 55.3179C413.644 55.5306 413.567 55.7819 413.47 56.0719C413.373 56.3426 413.286 56.6036 413.209 56.8549C413.132 57.1063 413.083 57.2803 413.064 57.3769C412.987 57.6283 412.851 57.7539 412.658 57.7539Z" fill="white"/>
<path d="M405.187 56.9999C404.665 56.9999 404.259 56.7679 403.969 56.3039C403.699 55.8399 403.515 55.2792 403.418 54.6219C403.322 53.9452 403.273 53.3169 403.273 52.7369C403.273 52.4662 403.273 52.2246 403.273 52.0119C403.293 51.7799 403.312 51.5866 403.331 51.4319H403.244C403.012 51.4319 402.896 51.3449 402.896 51.1709C402.935 51.0742 403.003 50.9969 403.099 50.9389C403.215 50.8616 403.322 50.8132 403.418 50.7939C403.515 49.9432 403.699 49.0732 403.969 48.1839C404.24 47.2946 404.607 46.4922 405.071 45.7769V45.6029C405.071 45.4096 405.187 45.2936 405.419 45.2549C405.516 45.1582 405.613 45.0519 405.709 44.9359C405.825 44.8006 405.951 44.7329 406.086 44.7329C406.241 44.7329 406.357 44.8006 406.434 44.9359C406.531 45.0519 406.541 45.1776 406.463 45.3129C406.831 45.3902 407.159 45.5449 407.449 45.7769C407.759 45.9896 407.913 46.3086 407.913 46.7339C407.913 47.2946 407.701 47.8746 407.275 48.4739C406.869 49.0539 406.376 49.5856 405.796 50.0689C405.236 50.5329 404.723 50.8809 404.259 51.1129C404.201 51.5769 404.163 52.0506 404.143 52.5339C404.143 52.9979 404.143 53.4619 404.143 53.9259C404.143 54.1579 404.153 54.4479 404.172 54.7959C404.211 55.1439 404.298 55.4532 404.433 55.7239C404.588 55.9946 404.839 56.1299 405.187 56.1299C405.555 56.1299 405.912 55.9656 406.26 55.6369C406.628 55.3082 406.976 54.8926 407.304 54.3899C407.652 53.8679 407.971 53.3266 408.261 52.7659C408.551 52.2052 408.803 51.6736 409.015 51.1709C409.228 50.6682 409.383 50.2816 409.479 50.0109C409.518 49.9142 409.566 49.8272 409.624 49.7499C409.682 49.6532 409.769 49.6049 409.885 49.6049C410.04 49.6049 410.117 49.7016 410.117 49.8949C410.117 50.2042 410.011 50.6489 409.798 51.2289C409.586 51.7896 409.296 52.3986 408.928 53.0559C408.58 53.7132 408.184 54.3416 407.739 54.9409C407.314 55.5402 406.879 56.0332 406.434 56.4199C405.99 56.8066 405.574 56.9999 405.187 56.9999ZM404.404 50.2139C404.772 49.9819 405.139 49.6919 405.506 49.3439C405.874 48.9959 406.183 48.5996 406.434 48.1549C406.686 47.7102 406.811 47.2656 406.811 46.8209C406.811 46.5889 406.695 46.4246 406.463 46.3279C406.231 46.2119 406.028 46.1442 405.854 46.1249C405.487 46.7242 405.178 47.3816 404.926 48.0969C404.694 48.8122 404.52 49.5179 404.404 50.2139Z" fill="white"/>
<path d="M398.915 56.5069C398.489 56.5069 398.151 56.3619 397.9 56.0719C397.648 55.7626 397.455 55.3856 397.32 54.9409C397.204 54.4769 397.126 54.0226 397.088 53.5779C397.049 53.1139 397.03 52.7369 397.03 52.4469C397.03 51.4029 397.068 50.3493 397.146 49.2859C397.242 48.2226 397.339 47.1689 397.436 46.1249C397.107 46.2603 396.788 46.4149 396.479 46.5889C396.189 46.7629 395.918 46.9853 395.667 47.2559C395.628 47.2946 395.58 47.3333 395.522 47.3719C395.483 47.4106 395.425 47.4299 395.348 47.4299C395.212 47.4299 395.077 47.3623 394.942 47.2269C394.826 47.0916 394.768 46.9563 394.768 46.8209C394.768 46.6469 394.884 46.4729 395.116 46.2989C395.348 46.1056 395.628 45.9316 395.957 45.7769C396.305 45.6029 396.624 45.4579 396.914 45.3419C397.223 45.2259 397.436 45.1486 397.552 45.1099C397.571 44.9553 397.61 44.6653 397.668 44.2399C397.745 43.7953 397.832 43.3023 397.929 42.7609C398.025 42.2003 398.132 41.6686 398.248 41.1659C398.383 40.6439 398.518 40.2186 398.654 39.8899C398.789 39.5419 398.924 39.3679 399.06 39.3679C399.195 39.3679 399.33 39.4163 399.466 39.5129C399.601 39.6096 399.669 39.7256 399.669 39.8609C399.669 39.9189 399.62 40.1606 399.524 40.5859C399.427 41.0113 399.301 41.5139 399.147 42.0939C399.011 42.6546 398.886 43.1863 398.77 43.6889C398.673 44.1916 398.605 44.5396 398.567 44.7329C399.417 44.4816 400.229 44.2786 401.003 44.1239C401.795 43.9693 402.627 43.8919 403.497 43.8919C403.574 43.8919 403.719 43.8919 403.932 43.8919C404.144 43.8919 404.347 43.9016 404.541 43.9209C404.753 43.9403 404.86 43.9789 404.86 44.0369C404.666 44.1143 404.454 44.1723 404.222 44.2109C404.009 44.2496 403.796 44.2786 403.584 44.2979C402.656 44.3753 401.776 44.5493 400.945 44.8199C400.133 45.0906 399.301 45.3903 398.451 45.7189C398.315 46.8209 398.199 47.9423 398.103 49.0829C398.006 50.2043 397.958 51.3159 397.958 52.4179C397.958 52.6306 397.967 52.9206 397.987 53.2879C398.006 53.6359 398.045 53.9936 398.103 54.3609C398.161 54.7089 398.257 55.0086 398.393 55.2599C398.528 55.5113 398.721 55.6369 398.973 55.6369C399.301 55.6369 399.64 55.4533 399.988 55.0859C400.336 54.6993 400.684 54.2353 401.032 53.6939C401.38 53.1333 401.699 52.5726 401.989 52.0119C402.279 51.4513 402.53 50.9776 402.743 50.5909C402.975 50.2043 403.129 50.0013 403.207 49.9819V50.0689C403.207 50.3589 403.11 50.7649 402.917 51.2869C402.723 51.8089 402.462 52.3696 402.134 52.9689C401.824 53.5489 401.476 54.1096 401.09 54.6509C400.722 55.1923 400.345 55.6369 399.959 55.9849C399.591 56.3329 399.243 56.5069 398.915 56.5069Z" fill="white"/>
<path d="M390.157 56.913C390.021 56.913 389.915 56.8647 389.838 56.768C389.76 56.6714 389.722 56.5554 389.722 56.42C389.722 55.6854 389.751 54.9507 389.809 54.216C389.886 53.462 389.925 52.7177 389.925 51.983C389.925 51.4997 389.905 50.8907 389.867 50.156C389.847 49.402 389.78 48.6674 389.664 47.952C389.567 47.2174 389.393 46.6567 389.142 46.27C389.122 46.2314 389.103 46.2024 389.084 46.183C389.064 46.1444 389.055 46.1057 389.055 46.067C389.055 45.951 389.113 45.8737 389.229 45.835C389.345 45.777 389.441 45.748 389.519 45.748C389.789 45.748 390.002 45.9027 390.157 46.212C390.311 46.5214 390.427 46.9177 390.505 47.401C390.582 47.8844 390.63 48.387 390.65 48.909C390.688 49.4117 390.708 49.8757 390.708 50.301C390.708 50.707 390.708 50.9874 390.708 51.142C390.708 51.3354 390.708 51.519 390.708 51.693C390.727 51.867 390.737 52.0507 390.737 52.244C390.814 51.9734 390.949 51.5577 391.143 50.997C391.336 50.4364 391.568 49.8177 391.839 49.141C392.109 48.445 392.399 47.7877 392.709 47.169C393.037 46.531 393.356 46.009 393.666 45.603C393.994 45.197 394.304 44.994 394.594 44.994C394.884 44.994 395.096 45.1777 395.232 45.545C395.367 45.9124 395.454 46.3087 395.493 46.734C395.551 47.1594 395.58 47.4784 395.58 47.691C395.58 47.8264 395.57 48.0584 395.551 48.387C395.531 48.6964 395.483 48.9864 395.406 49.257C395.348 49.5277 395.232 49.663 395.058 49.663C394.903 49.663 394.826 49.489 394.826 49.141C394.826 48.9864 394.835 48.8414 394.855 48.706C394.874 48.5707 394.884 48.4644 394.884 48.387C394.884 48.2904 394.874 48.068 394.855 47.72C394.835 47.3527 394.787 47.0047 394.71 46.676C394.652 46.3474 394.565 46.183 394.449 46.183C394.333 46.183 394.188 46.299 394.014 46.531C393.859 46.7437 393.695 47.0047 393.521 47.314C393.366 47.604 393.221 47.894 393.086 48.184C392.97 48.4547 392.892 48.648 392.854 48.764C392.564 49.4794 392.254 50.2914 391.926 51.2C391.616 52.1087 391.346 53.027 391.114 53.955C390.901 54.8637 390.795 55.7144 390.795 56.507C390.659 56.7777 390.447 56.913 390.157 56.913Z" fill="white"/>
<path d="M379.951 57.8121C379.623 57.8121 379.381 57.6478 379.226 57.3191C379.071 57.0098 378.975 56.6521 378.936 56.2461C378.898 55.8401 378.878 55.5308 378.878 55.3181C378.878 54.5834 378.946 53.8101 379.081 52.9981C379.217 52.1668 379.391 51.3934 379.603 50.6781C379.7 50.3494 379.874 49.8758 380.125 49.2571C380.377 48.6191 380.676 47.9714 381.024 47.3141C381.392 46.6568 381.778 46.1058 382.184 45.6611C382.61 45.1971 383.035 44.9651 383.46 44.9651C383.789 44.9651 384.147 45.1101 384.533 45.4001C384.92 45.6901 385.113 46.0091 385.113 46.3571C385.113 46.4924 385.065 46.6084 384.968 46.7051C384.988 46.6858 385.036 46.6761 385.113 46.6761C385.481 46.6761 385.664 46.8694 385.664 47.2561C385.664 47.7008 385.596 48.2324 385.461 48.8511C385.345 49.4698 385.22 50.1271 385.084 50.8231C384.949 51.4998 384.881 52.1571 384.881 52.7951C384.881 53.0271 384.901 53.3074 384.939 53.6361C384.978 53.9454 385.065 54.2258 385.2 54.4771C385.355 54.7284 385.597 54.8541 385.925 54.8541C386.235 54.8541 386.563 54.6898 386.911 54.3611C387.259 54.0324 387.598 53.6264 387.926 53.1431C388.255 52.6598 388.564 52.1764 388.854 51.6931C389.144 51.2098 389.386 50.8038 389.579 50.4751C389.792 50.1464 389.937 49.9821 390.014 49.9821C390.15 49.9821 390.217 50.0691 390.217 50.2431C390.217 50.4751 390.111 50.8134 389.898 51.2581C389.705 51.6834 389.444 52.1571 389.115 52.6791C388.787 53.1818 388.419 53.6748 388.013 54.1581C387.627 54.6221 387.23 55.0088 386.824 55.3181C386.438 55.6081 386.089 55.7531 385.78 55.7531C385.277 55.7531 384.891 55.5501 384.62 55.1441C384.369 54.7188 384.195 54.2161 384.098 53.6361C384.021 53.0561 383.982 52.5148 383.982 52.0121C383.982 51.8381 383.982 51.6738 383.982 51.5191C383.982 51.3644 383.992 51.2291 384.011 51.1131C383.895 51.3838 383.731 51.7898 383.518 52.3311C383.306 52.8531 383.054 53.4331 382.764 54.0711C382.494 54.6898 382.194 55.2891 381.865 55.8691C381.556 56.4298 381.237 56.8938 380.908 57.2611C380.58 57.6284 380.261 57.8121 379.951 57.8121ZM380.183 56.5941C380.434 56.5941 380.715 56.3621 381.024 55.8981C381.334 55.4341 381.653 54.8444 381.981 54.1291C382.329 53.3944 382.658 52.6114 382.967 51.7801C383.277 50.9488 383.557 50.1658 383.808 49.4311C384.079 48.6771 384.301 48.0584 384.475 47.5751C384.649 47.0724 384.765 46.8018 384.823 46.7631L384.649 46.7921C384.514 46.7921 384.408 46.7244 384.33 46.5891C384.253 46.4344 384.156 46.2894 384.04 46.1541C383.924 46.0188 383.731 45.9511 383.46 45.9511C383.112 45.9511 382.774 46.1541 382.445 46.5601C382.117 46.9661 381.798 47.4591 381.488 48.0391C381.198 48.5998 380.947 49.1508 380.734 49.6921C380.541 50.2334 380.406 50.6394 380.328 50.9101C379.942 52.2441 379.748 53.6168 379.748 55.0281C379.748 55.1054 379.748 55.2794 379.748 55.5501C379.768 55.8014 379.806 56.0431 379.864 56.2751C379.941 56.4878 380.048 56.5941 380.183 56.5941Z" fill="white"/>
<path d="M375.012 56.5069C374.587 56.5069 374.249 56.3619 373.997 56.0719C373.746 55.7626 373.553 55.3856 373.417 54.9409C373.301 54.4769 373.224 54.0226 373.185 53.5779C373.147 53.1139 373.127 52.7369 373.127 52.4469C373.127 51.4029 373.166 50.3493 373.243 49.2859C373.34 48.2226 373.437 47.1689 373.533 46.1249C373.205 46.2603 372.886 46.4149 372.576 46.5889C372.286 46.7629 372.016 46.9853 371.764 47.2559C371.726 47.2946 371.677 47.3333 371.619 47.3719C371.581 47.4106 371.523 47.4299 371.445 47.4299C371.31 47.4299 371.175 47.3623 371.039 47.2269C370.923 47.0916 370.865 46.9563 370.865 46.8209C370.865 46.6469 370.981 46.4729 371.213 46.2989C371.445 46.1056 371.726 45.9316 372.054 45.7769C372.402 45.6029 372.721 45.4579 373.011 45.3419C373.321 45.2259 373.533 45.1486 373.649 45.1099C373.669 44.9553 373.707 44.6653 373.765 44.2399C373.843 43.7953 373.93 43.3023 374.026 42.7609C374.123 42.2003 374.229 41.6686 374.345 41.1659C374.481 40.6439 374.616 40.2186 374.751 39.8899C374.887 39.5419 375.022 39.3679 375.157 39.3679C375.293 39.3679 375.428 39.4163 375.563 39.5129C375.699 39.6096 375.766 39.7256 375.766 39.8609C375.766 39.9189 375.718 40.1606 375.621 40.5859C375.525 41.0113 375.399 41.5139 375.244 42.0939C375.109 42.6546 374.983 43.1863 374.867 43.6889C374.771 44.1916 374.703 44.5396 374.664 44.7329C375.515 44.4816 376.327 44.2786 377.1 44.1239C377.893 43.9693 378.724 43.8919 379.594 43.8919C379.672 43.8919 379.817 43.8919 380.029 43.8919C380.242 43.8919 380.445 43.9016 380.638 43.9209C380.851 43.9403 380.957 43.9789 380.957 44.0369C380.764 44.1143 380.551 44.1723 380.319 44.2109C380.107 44.2496 379.894 44.2786 379.681 44.2979C378.753 44.3753 377.874 44.5493 377.042 44.8199C376.23 45.0906 375.399 45.3903 374.548 45.7189C374.413 46.8209 374.297 47.9423 374.2 49.0829C374.104 50.2043 374.055 51.3159 374.055 52.4179C374.055 52.6306 374.065 52.9206 374.084 53.2879C374.104 53.6359 374.142 53.9936 374.2 54.3609C374.258 54.7089 374.355 55.0086 374.49 55.2599C374.626 55.5113 374.819 55.6369 375.07 55.6369C375.399 55.6369 375.737 55.4533 376.085 55.0859C376.433 54.6993 376.781 54.2353 377.129 53.6939C377.477 53.1333 377.796 52.5726 378.086 52.0119C378.376 51.4513 378.628 50.9776 378.84 50.5909C379.072 50.2043 379.227 50.0013 379.304 49.9819V50.0689C379.304 50.3589 379.208 50.7649 379.014 51.2869C378.821 51.8089 378.56 52.3696 378.231 52.9689C377.922 53.5489 377.574 54.1096 377.187 54.6509C376.82 55.1923 376.443 55.6369 376.056 55.9849C375.689 56.3329 375.341 56.5069 375.012 56.5069Z" fill="white"/>
<path d="M364.713 57.116C364.578 57.116 364.472 57.0677 364.394 56.971C364.336 56.855 364.307 56.7294 364.307 56.594C364.307 55.5114 364.365 54.4287 364.481 53.346C364.617 52.244 364.684 51.1517 364.684 50.069C364.684 49.953 364.675 49.7307 364.655 49.402C364.655 49.054 364.636 48.6867 364.597 48.3C364.578 47.894 364.539 47.5364 364.481 47.227C364.443 46.8984 364.385 46.6954 364.307 46.618C364.23 46.56 364.153 46.4924 364.075 46.415C364.017 46.3377 363.988 46.241 363.988 46.125C363.988 46.009 364.037 45.922 364.133 45.864C364.249 45.7867 364.365 45.748 364.481 45.748C364.81 45.748 365.042 45.9027 365.177 46.212C365.332 46.502 365.429 46.8597 365.467 47.285C365.525 47.7104 365.554 48.1164 365.554 48.503C365.554 50.3204 365.496 52.1474 365.38 53.984C365.458 53.7714 365.612 53.3944 365.844 52.853C366.076 52.3117 366.357 51.7027 366.685 51.026C367.014 50.3494 367.352 49.7017 367.7 49.083C368.068 48.445 368.406 47.923 368.715 47.517C369.025 47.0917 369.276 46.879 369.469 46.879C369.74 46.879 369.933 47.053 370.049 47.401C370.185 47.7297 370.252 48.0004 370.252 48.213C370.252 49.1024 370.204 49.9917 370.107 50.881C370.03 51.7704 369.991 52.6694 369.991 53.578C369.991 53.694 370.001 53.9164 370.02 54.245C370.059 54.5544 370.117 54.854 370.194 55.144C370.291 55.4147 370.436 55.55 370.629 55.55C370.784 55.55 370.987 55.376 371.238 55.028C371.49 54.68 371.751 54.274 372.021 53.81C372.292 53.3267 372.534 52.8724 372.746 52.447C372.959 52.0217 373.104 51.722 373.181 51.548C373.201 51.5094 373.22 51.4707 373.239 51.432C373.259 51.374 373.288 51.345 373.326 51.345C373.423 51.345 373.481 51.4224 373.5 51.577C373.52 51.7124 373.529 51.7994 373.529 51.838C373.529 52.0314 373.423 52.3697 373.21 52.853C372.998 53.3364 372.727 53.8487 372.398 54.39C372.089 54.9314 371.76 55.3954 371.412 55.782C371.084 56.1687 370.784 56.362 370.513 56.362C370.127 56.362 369.837 56.2074 369.643 55.898C369.469 55.5887 369.353 55.2407 369.295 54.854C369.237 54.448 369.208 54.1097 369.208 53.839C369.208 53.201 369.237 52.563 369.295 51.925C369.373 51.287 369.411 50.649 369.411 50.011C369.411 49.953 369.402 49.808 369.382 49.576C369.382 49.344 369.373 49.1217 369.353 48.909C369.334 48.6964 369.286 48.59 369.208 48.59C369.015 48.59 368.764 48.8317 368.454 49.315C368.164 49.7984 367.845 50.4074 367.497 51.142C367.169 51.8767 366.84 52.6404 366.511 53.433C366.183 54.2064 365.893 54.9024 365.641 55.521C365.409 56.1397 365.245 56.5554 365.148 56.768C365.11 56.8454 365.052 56.9227 364.974 57C364.916 57.0774 364.829 57.116 364.713 57.116Z" fill="white"/>
<path d="M357.641 57.464C357.274 57.464 356.964 57.3287 356.713 57.058C356.481 56.7873 356.297 56.4587 356.162 56.072C356.027 55.666 355.93 55.26 355.872 54.854C355.833 54.448 355.814 54.1097 355.814 53.839C355.814 53.549 355.843 53.085 355.901 52.447C355.978 51.7897 356.094 51.0647 356.249 50.272C356.404 49.4793 356.597 48.7157 356.829 47.981C357.061 47.227 357.332 46.5987 357.641 46.096C357.97 45.5933 358.347 45.3227 358.772 45.284C358.83 45.11 358.917 44.965 359.033 44.849C359.149 44.7137 359.304 44.646 359.497 44.646C359.884 44.646 360.222 44.8103 360.512 45.139C360.802 45.4677 361.044 45.8737 361.237 46.357C361.43 46.8403 361.575 47.314 361.672 47.778C361.788 48.242 361.846 48.619 361.846 48.909C361.846 49.7983 361.759 50.678 361.585 51.548L361.817 51.577C362.378 51.577 362.813 51.49 363.122 51.316C363.431 51.142 363.673 50.9777 363.847 50.823C364.021 50.649 364.166 50.562 364.282 50.562C364.398 50.562 364.456 50.6297 364.456 50.765C364.456 50.997 364.33 51.2097 364.079 51.403C363.847 51.577 363.557 51.7413 363.209 51.896C362.861 52.0313 362.523 52.128 362.194 52.186C361.865 52.244 361.614 52.2537 361.44 52.215C361.343 52.621 361.179 53.1237 360.947 53.723C360.734 54.303 360.464 54.883 360.135 55.463C359.826 56.0237 359.458 56.4973 359.033 56.884C358.608 57.2707 358.144 57.464 357.641 57.464ZM360.802 50.968C360.918 50.2913 360.976 49.605 360.976 48.909C360.976 48.7543 360.937 48.4933 360.86 48.126C360.802 47.7393 360.705 47.3333 360.57 46.908C360.454 46.4827 360.309 46.1153 360.135 45.806C359.961 45.4967 359.777 45.342 359.584 45.342C359.487 45.342 359.41 45.4193 359.352 45.574C359.313 45.7093 359.284 45.864 359.265 46.038C359.265 46.212 359.265 46.328 359.265 46.386C359.265 47.1593 359.381 47.9713 359.613 48.822C359.864 49.6533 360.261 50.3687 360.802 50.968ZM357.728 56.71C358.018 56.71 358.318 56.5167 358.627 56.13C358.936 55.724 359.226 55.2407 359.497 54.68C359.787 54.1 360.029 53.549 360.222 53.027C360.415 52.505 360.541 52.1183 360.599 51.867C359.864 51.3643 359.313 50.6877 358.946 49.837C358.598 48.9863 358.424 48.1163 358.424 47.227C358.424 46.8403 358.453 46.473 358.511 46.125C358.105 46.821 357.767 47.6427 357.496 48.59C357.225 49.5373 357.022 50.504 356.887 51.49C356.771 52.476 356.713 53.375 356.713 54.187C356.713 54.3803 356.732 54.68 356.771 55.086C356.829 55.492 356.935 55.869 357.09 56.217C357.245 56.5457 357.457 56.71 357.728 56.71Z" fill="white"/>
<path d="M350.593 56.623C350.013 56.623 349.559 56.4297 349.23 56.043C348.902 55.637 348.67 55.1633 348.534 54.622C348.399 54.0613 348.331 53.5587 348.331 53.114C348.331 52.7853 348.38 52.273 348.476 51.577C348.573 50.8617 348.718 50.0787 348.911 49.228C349.124 48.3773 349.375 47.5557 349.665 46.763C349.955 45.9703 350.294 45.3227 350.68 44.82C351.067 44.298 351.492 44.037 351.956 44.037C352.285 44.037 352.527 44.1627 352.681 44.414C352.836 44.6653 352.933 44.9843 352.971 45.371C353.029 45.7383 353.058 46.1057 353.058 46.473C353.058 46.821 353.058 47.111 353.058 47.343C353.058 47.4397 352.991 47.546 352.855 47.662C352.739 47.7587 352.633 47.807 352.536 47.807C352.343 47.807 352.217 47.72 352.159 47.546C352.101 47.372 352.072 47.1787 352.072 46.966C352.072 46.7533 352.082 46.56 352.101 46.386C352.121 46.1927 352.13 46.0477 352.13 45.951C352.13 45.8543 352.111 45.6997 352.072 45.487C352.034 45.255 351.956 45.139 351.84 45.139C351.531 45.255 351.241 45.5643 350.97 46.067C350.7 46.5503 350.448 47.1303 350.216 47.807C350.004 48.4837 349.82 49.1797 349.665 49.895C349.53 50.6103 349.414 51.2677 349.317 51.867C349.24 52.447 349.201 52.882 349.201 53.172C349.201 53.4427 349.23 53.7907 349.288 54.216C349.366 54.622 349.501 54.9893 349.694 55.318C349.907 55.6467 350.197 55.811 350.564 55.811C350.97 55.811 351.376 55.6273 351.782 55.26C352.188 54.8733 352.575 54.3997 352.942 53.839C353.329 53.2783 353.677 52.7177 353.986 52.157C354.296 51.577 354.547 51.1033 354.74 50.736C354.953 50.3493 355.098 50.156 355.175 50.156C355.272 50.156 355.33 50.2043 355.349 50.301C355.369 50.3977 355.369 50.475 355.349 50.533L355.32 50.649C355.204 51.0743 354.992 51.6157 354.682 52.273C354.373 52.9303 353.996 53.5973 353.551 54.274C353.107 54.9313 352.623 55.492 352.101 55.956C351.599 56.4007 351.096 56.623 350.593 56.623Z" fill="white"/>
<path d="M336.766 56.9999C336.244 56.9999 335.838 56.7679 335.548 56.3039C335.277 55.8399 335.093 55.2792 334.997 54.6219C334.9 53.9452 334.852 53.3169 334.852 52.7369C334.852 52.4662 334.852 52.2246 334.852 52.0119C334.871 51.7799 334.89 51.5866 334.91 51.4319H334.823C334.591 51.4319 334.475 51.3449 334.475 51.1709C334.513 51.0742 334.581 50.9969 334.678 50.9389C334.794 50.8616 334.9 50.8132 334.997 50.7939C335.093 49.9432 335.277 49.0732 335.548 48.1839C335.818 47.2946 336.186 46.4922 336.65 45.7769V45.6029C336.65 45.4096 336.766 45.2936 336.998 45.2549C337.094 45.1582 337.191 45.0519 337.288 44.9359C337.404 44.8006 337.529 44.7329 337.665 44.7329C337.819 44.7329 337.935 44.8006 338.013 44.9359C338.109 45.0519 338.119 45.1776 338.042 45.3129C338.409 45.3902 338.738 45.5449 339.028 45.7769C339.337 45.9896 339.492 46.3086 339.492 46.7339C339.492 47.2946 339.279 47.8746 338.854 48.4739C338.448 49.0539 337.955 49.5856 337.375 50.0689C336.814 50.5329 336.302 50.8809 335.838 51.1129C335.78 51.5769 335.741 52.0506 335.722 52.5339C335.722 52.9979 335.722 53.4619 335.722 53.9259C335.722 54.1579 335.731 54.4479 335.751 54.7959C335.789 55.1439 335.876 55.4532 336.012 55.7239C336.166 55.9946 336.418 56.1299 336.766 56.1299C337.133 56.1299 337.491 55.9656 337.839 55.6369C338.206 55.3082 338.554 54.8926 338.883 54.3899C339.231 53.8679 339.55 53.3266 339.84 52.7659C340.13 52.2052 340.381 51.6736 340.594 51.1709C340.806 50.6682 340.961 50.2816 341.058 50.0109C341.096 49.9142 341.145 49.8272 341.203 49.7499C341.261 49.6532 341.348 49.6049 341.464 49.6049C341.618 49.6049 341.696 49.7016 341.696 49.8949C341.696 50.2042 341.589 50.6489 341.377 51.2289C341.164 51.7896 340.874 52.3986 340.507 53.0559C340.159 53.7132 339.762 54.3416 339.318 54.9409C338.892 55.5402 338.457 56.0332 338.013 56.4199C337.568 56.8066 337.152 56.9999 336.766 56.9999ZM335.983 50.2139C336.35 49.9819 336.717 49.6919 337.085 49.3439C337.452 48.9959 337.761 48.5996 338.013 48.1549C338.264 47.7102 338.39 47.2656 338.39 46.8209C338.39 46.5889 338.274 46.4246 338.042 46.3279C337.81 46.2119 337.607 46.1442 337.433 46.1249C337.065 46.7242 336.756 47.3816 336.505 48.0969C336.273 48.8122 336.099 49.5179 335.983 50.2139Z" fill="white"/>
<path d="M326.821 56.333C326.512 56.333 326.261 56.2073 326.067 55.956C325.893 55.7047 325.758 55.3953 325.661 55.028C325.565 54.6413 325.497 54.274 325.458 53.926C325.439 53.5587 325.429 53.2687 325.429 53.056C325.429 52.8627 325.429 52.6693 325.429 52.476C325.449 52.2827 325.468 52.0893 325.487 51.896C325.565 51.2967 325.671 50.707 325.806 50.127C325.942 49.5277 326.048 48.9283 326.125 48.329C326.164 48.0197 326.193 47.72 326.212 47.43C326.232 47.14 326.251 46.8403 326.27 46.531C326.29 46.4343 326.319 46.3473 326.357 46.27C326.396 46.1733 326.473 46.125 326.589 46.125C326.802 46.125 326.928 46.2217 326.966 46.415C327.024 46.589 327.053 46.7533 327.053 46.908C327.053 47.604 326.986 48.2903 326.85 48.967C326.715 49.6437 326.58 50.3203 326.444 50.997C326.309 51.6737 326.241 52.36 326.241 53.056C326.241 53.1333 326.241 53.3073 326.241 53.578C326.261 53.8293 326.29 54.1097 326.328 54.419C326.367 54.709 326.425 54.9603 326.502 55.173C326.599 55.3857 326.715 55.492 326.85 55.492C327.024 55.492 327.247 55.289 327.517 54.883C327.807 54.477 328.097 53.9937 328.387 53.433C328.697 52.853 328.967 52.3213 329.199 51.838C329.451 51.3353 329.615 50.997 329.692 50.823C329.963 50.2237 330.137 49.6727 330.214 49.17C330.311 48.6673 330.379 48.2033 330.417 47.778C330.456 47.3333 330.553 46.8983 330.707 46.473C330.804 46.241 330.949 46.125 331.142 46.125C331.432 46.125 331.577 46.299 331.577 46.647C331.577 47.2463 331.51 47.9713 331.374 48.822C331.239 49.6533 331.171 50.475 331.171 51.287V51.925C331.171 52.0603 331.171 52.273 331.171 52.563C331.171 52.8337 331.191 53.1237 331.229 53.433C331.287 53.7423 331.365 54.0033 331.461 54.216C331.577 54.4287 331.742 54.535 331.954 54.535C332.206 54.535 332.457 54.39 332.708 54.1C332.96 53.81 333.192 53.4717 333.404 53.085C333.636 52.6983 333.83 52.36 333.984 52.07C334.139 51.78 334.255 51.635 334.332 51.635C334.448 51.635 334.506 51.7123 334.506 51.867C334.506 52.041 334.41 52.3213 334.216 52.708C334.042 53.0753 333.81 53.462 333.52 53.868C333.25 54.274 332.96 54.622 332.65 54.912C332.36 55.202 332.109 55.347 331.896 55.347C331.452 55.347 331.113 55.1633 330.881 54.796C330.669 54.4287 330.514 53.9743 330.417 53.433C330.34 52.8917 330.301 52.3697 330.301 51.867C330.301 51.345 330.301 50.939 330.301 50.649C330.224 50.881 330.098 51.229 329.924 51.693C329.75 52.1377 329.547 52.6307 329.315 53.172C329.083 53.694 328.832 54.1967 328.561 54.68C328.291 55.1633 328.001 55.5597 327.691 55.869C327.401 56.1783 327.111 56.333 326.821 56.333Z" fill="white"/>
<path d="M323.261 64.6269C322.797 64.6269 322.43 64.4239 322.159 64.0179C321.908 63.6119 321.715 63.1093 321.579 62.5099C321.463 61.9299 321.386 61.3596 321.347 60.7989C321.328 60.2383 321.318 59.8033 321.318 59.4939C321.318 58.6433 321.367 57.7829 321.463 56.9129C321.56 56.0429 321.686 55.1923 321.84 54.3609C321.705 54.6316 321.512 54.9699 321.26 55.3759C321.009 55.7626 320.719 56.1106 320.39 56.4199C320.081 56.7099 319.743 56.8549 319.375 56.8549C318.911 56.8549 318.573 56.6809 318.36 56.3329C318.148 55.9656 318.012 55.5499 317.954 55.0859C317.896 54.6026 317.867 54.1966 317.867 53.8679C317.867 53.0559 317.945 52.1956 318.099 51.2869C318.273 50.3589 318.486 49.5083 318.737 48.7349C318.853 48.4256 319.027 48.0389 319.259 47.5749C319.491 47.0916 319.762 46.6179 320.071 46.1539C320.4 45.6706 320.748 45.2743 321.115 44.9649C321.483 44.6363 321.86 44.4719 322.246 44.4719C323.252 44.4719 323.754 44.9746 323.754 45.9799C323.754 46.1153 323.696 46.2506 323.58 46.3859C323.484 46.5019 323.358 46.5599 323.203 46.5599C323.029 46.5599 322.923 46.5116 322.884 46.4149C322.865 46.3183 322.846 46.2119 322.826 46.0959C322.826 45.9606 322.778 45.8446 322.681 45.7479C322.604 45.6513 322.43 45.6029 322.159 45.6029C321.695 45.6029 321.28 45.8349 320.912 46.2989C320.545 46.7629 320.216 47.3526 319.926 48.0679C319.656 48.7833 319.424 49.5373 319.23 50.3299C319.056 51.1033 318.921 51.8283 318.824 52.5049C318.728 53.1623 318.679 53.6649 318.679 54.0129C318.679 54.1869 318.689 54.4286 318.708 54.7379C318.747 55.0473 318.824 55.3276 318.94 55.5789C319.056 55.8303 319.24 55.9559 319.491 55.9559C319.723 55.9559 319.994 55.7529 320.303 55.3469C320.613 54.9409 320.922 54.4576 321.231 53.8969C321.541 53.3363 321.811 52.8046 322.043 52.3019C322.275 51.7799 322.43 51.4126 322.507 51.1999C322.585 50.9873 322.691 50.6006 322.826 50.0399C322.962 49.4793 323.116 48.8896 323.29 48.2709C323.484 47.6523 323.687 47.1206 323.899 46.6759C324.131 46.2313 324.373 46.0089 324.624 46.0089C324.663 46.0089 324.721 46.0283 324.798 46.0669C324.856 46.1056 324.885 46.1636 324.885 46.2409C324.905 46.3183 324.914 46.3956 324.914 46.4729C324.914 46.9563 324.808 47.5073 324.595 48.1259C324.383 48.7253 324.141 49.3149 323.87 49.8949C323.6 50.4749 323.377 50.9969 323.203 51.4609C322.952 52.1569 322.749 52.9979 322.594 53.9839C322.44 54.9506 322.324 55.9269 322.246 56.9129C322.169 57.8989 322.13 58.7689 322.13 59.5229C322.13 59.6969 322.13 60.0063 322.13 60.4509C322.15 60.9149 322.188 61.3983 322.246 61.9009C322.324 62.4036 322.44 62.8289 322.594 63.1769C322.749 63.5443 322.971 63.7279 323.261 63.7279C323.571 63.7279 323.861 63.5539 324.131 63.2059C324.402 62.8773 324.653 62.4809 324.885 62.0169C325.117 61.5723 325.311 61.1759 325.465 60.8279C325.62 60.4993 325.736 60.3349 325.813 60.3349C325.891 60.3349 325.939 60.3833 325.958 60.4799C325.978 60.5766 325.987 60.6443 325.987 60.6829C325.987 60.9149 325.891 61.2436 325.697 61.6689C325.523 62.0943 325.291 62.5293 325.001 62.9739C324.731 63.4379 324.441 63.8246 324.131 64.1339C323.822 64.4626 323.532 64.6269 323.261 64.6269Z" fill="white"/>
<path d="M305.591 57.0871C305.243 57.0871 305.069 56.9131 305.069 56.5651C305.069 56.2364 305.185 55.8691 305.417 55.4631C305.669 55.0378 305.968 54.6124 306.316 54.1871C306.664 53.7424 307.012 53.3364 307.36 52.9691C307.728 52.6018 308.027 52.3021 308.259 52.0701C307.989 51.9348 307.65 51.8188 307.244 51.7221C306.858 51.6061 306.461 51.4804 306.055 51.3451C305.669 51.1904 305.34 50.9971 305.069 50.7651C304.818 50.5138 304.692 50.1851 304.692 49.7791C304.692 49.3538 304.847 48.8704 305.156 48.3291C305.485 47.7878 305.901 47.2658 306.403 46.7631C306.906 46.2411 307.418 45.8158 307.94 45.4871C308.462 45.1391 308.926 44.9651 309.332 44.9651C309.584 44.9651 309.825 45.0328 310.057 45.1681C310.309 45.2841 310.434 45.4871 310.434 45.7771C310.434 45.8544 310.415 45.9608 310.376 46.0961C310.338 46.2314 310.27 46.2991 310.173 46.2991C310.038 46.2991 309.922 46.2314 309.825 46.0961C309.748 45.9414 309.651 45.8641 309.535 45.8641C309.207 45.8641 308.81 45.9994 308.346 46.2701C307.902 46.5408 307.467 46.8888 307.041 47.3141C306.616 47.7201 306.258 48.1454 305.968 48.5901C305.698 49.0348 305.562 49.4311 305.562 49.7791C305.562 50.0111 305.698 50.2141 305.968 50.3881C306.239 50.5621 306.558 50.7071 306.925 50.8231C307.312 50.9391 307.689 51.0551 308.056 51.1711C308.424 51.2678 308.694 51.3741 308.868 51.4901C308.965 51.3934 309.129 51.2388 309.361 51.0261C309.593 50.8134 309.854 50.5814 310.144 50.3301C310.434 50.0788 310.695 49.8661 310.927 49.6921C311.179 49.5181 311.353 49.4311 311.449 49.4311C311.527 49.4311 311.565 49.4698 311.565 49.5471C311.565 49.6438 311.469 49.8081 311.275 50.0401C311.101 50.2528 310.879 50.4848 310.608 50.7361C310.357 50.9874 310.115 51.2291 309.883 51.4611C309.651 51.6738 309.487 51.8284 309.39 51.9251C309.564 52.2151 309.651 52.5244 309.651 52.8531C309.651 53.1818 309.506 53.5878 309.216 54.0711C308.926 54.5351 308.559 54.9991 308.114 55.4631C307.689 55.9271 307.244 56.3138 306.78 56.6231C306.316 56.9324 305.92 57.0871 305.591 57.0871ZM306.693 55.6081C306.867 55.6081 307.07 55.5114 307.302 55.3181C307.554 55.1248 307.795 54.8831 308.027 54.5931C308.259 54.3031 308.453 54.0228 308.607 53.7521C308.781 53.4621 308.868 53.2301 308.868 53.0561C308.868 52.8628 308.83 52.7178 308.752 52.6211C308.636 52.7371 308.453 52.9208 308.201 53.1721C307.969 53.4234 307.718 53.7038 307.447 54.0131C307.196 54.3031 306.974 54.5834 306.78 54.8541C306.606 55.1054 306.519 55.2988 306.519 55.4341C306.519 55.5501 306.577 55.6081 306.693 55.6081Z" fill="white"/>
<path d="M295.415 57.8121C295.086 57.8121 294.845 57.6478 294.69 57.3191C294.535 57.0098 294.439 56.6521 294.4 56.2461C294.361 55.8401 294.342 55.5308 294.342 55.3181C294.342 54.5834 294.41 53.8101 294.545 52.9981C294.68 52.1668 294.854 51.3934 295.067 50.6781C295.164 50.3494 295.338 49.8758 295.589 49.2571C295.84 48.6191 296.14 47.9714 296.488 47.3141C296.855 46.6568 297.242 46.1058 297.648 45.6611C298.073 45.1971 298.499 44.9651 298.924 44.9651C299.253 44.9651 299.61 45.1101 299.997 45.4001C300.384 45.6901 300.577 46.0091 300.577 46.3571C300.577 46.4924 300.529 46.6084 300.432 46.7051C300.451 46.6858 300.5 46.6761 300.577 46.6761C300.944 46.6761 301.128 46.8694 301.128 47.2561C301.128 47.7008 301.06 48.2324 300.925 48.8511C300.809 49.4698 300.683 50.1271 300.548 50.8231C300.413 51.4998 300.345 52.1571 300.345 52.7951C300.345 53.0271 300.364 53.3074 300.403 53.6361C300.442 53.9454 300.529 54.2258 300.664 54.4771C300.819 54.7284 301.06 54.8541 301.389 54.8541C301.698 54.8541 302.027 54.6898 302.375 54.3611C302.723 54.0324 303.061 53.6264 303.39 53.1431C303.719 52.6598 304.028 52.1764 304.318 51.6931C304.608 51.2098 304.85 50.8038 305.043 50.4751C305.256 50.1464 305.401 49.9821 305.478 49.9821C305.613 49.9821 305.681 50.0691 305.681 50.2431C305.681 50.4751 305.575 50.8134 305.362 51.2581C305.169 51.6834 304.908 52.1571 304.579 52.6791C304.25 53.1818 303.883 53.6748 303.477 54.1581C303.09 54.6221 302.694 55.0088 302.288 55.3181C301.901 55.6081 301.553 55.7531 301.244 55.7531C300.741 55.7531 300.355 55.5501 300.084 55.1441C299.833 54.7188 299.659 54.2161 299.562 53.6361C299.485 53.0561 299.446 52.5148 299.446 52.0121C299.446 51.8381 299.446 51.6738 299.446 51.5191C299.446 51.3644 299.456 51.2291 299.475 51.1131C299.359 51.3838 299.195 51.7898 298.982 52.3311C298.769 52.8531 298.518 53.4331 298.228 54.0711C297.957 54.6898 297.658 55.2891 297.329 55.8691C297.02 56.4298 296.701 56.8938 296.372 57.2611C296.043 57.6284 295.724 57.8121 295.415 57.8121ZM295.647 56.5941C295.898 56.5941 296.179 56.3621 296.488 55.8981C296.797 55.4341 297.116 54.8444 297.445 54.1291C297.793 53.3944 298.122 52.6114 298.431 51.7801C298.74 50.9488 299.021 50.1658 299.272 49.4311C299.543 48.6771 299.765 48.0584 299.939 47.5751C300.113 47.0724 300.229 46.8018 300.287 46.7631L300.113 46.7921C299.978 46.7921 299.871 46.7244 299.794 46.5891C299.717 46.4344 299.62 46.2894 299.504 46.1541C299.388 46.0188 299.195 45.9511 298.924 45.9511C298.576 45.9511 298.238 46.1541 297.909 46.5601C297.58 46.9661 297.261 47.4591 296.952 48.0391C296.662 48.5998 296.411 49.1508 296.198 49.6921C296.005 50.2334 295.869 50.6394 295.792 50.9101C295.405 52.2441 295.212 53.6168 295.212 55.0281C295.212 55.1054 295.212 55.2794 295.212 55.5501C295.231 55.8014 295.27 56.0431 295.328 56.2751C295.405 56.4878 295.512 56.5941 295.647 56.5941Z" fill="white"/>
<path d="M288.684 57.0871C288.336 57.0871 288.162 56.9131 288.162 56.5651C288.162 56.2364 288.278 55.8691 288.51 55.4631C288.761 55.0378 289.061 54.6124 289.409 54.1871C289.757 53.7424 290.105 53.3364 290.453 52.9691C290.82 52.6018 291.12 52.3021 291.352 52.0701C291.081 51.9348 290.743 51.8188 290.337 51.7221C289.95 51.6061 289.554 51.4804 289.148 51.3451C288.761 51.1904 288.433 50.9971 288.162 50.7651C287.911 50.5138 287.785 50.1851 287.785 49.7791C287.785 49.3538 287.94 48.8704 288.249 48.3291C288.578 47.7878 288.993 47.2658 289.496 46.7631C289.999 46.2411 290.511 45.8158 291.033 45.4871C291.555 45.1391 292.019 44.9651 292.425 44.9651C292.676 44.9651 292.918 45.0328 293.15 45.1681C293.401 45.2841 293.527 45.4871 293.527 45.7771C293.527 45.8544 293.508 45.9608 293.469 46.0961C293.43 46.2314 293.363 46.2991 293.266 46.2991C293.131 46.2991 293.015 46.2314 292.918 46.0961C292.841 45.9414 292.744 45.8641 292.628 45.8641C292.299 45.8641 291.903 45.9994 291.439 46.2701C290.994 46.5408 290.559 46.8888 290.134 47.3141C289.709 47.7201 289.351 48.1454 289.061 48.5901C288.79 49.0348 288.655 49.4311 288.655 49.7791C288.655 50.0111 288.79 50.2141 289.061 50.3881C289.332 50.5621 289.651 50.7071 290.018 50.8231C290.405 50.9391 290.782 51.0551 291.149 51.1711C291.516 51.2678 291.787 51.3741 291.961 51.4901C292.058 51.3934 292.222 51.2388 292.454 51.0261C292.686 50.8134 292.947 50.5814 293.237 50.3301C293.527 50.0788 293.788 49.8661 294.02 49.6921C294.271 49.5181 294.445 49.4311 294.542 49.4311C294.619 49.4311 294.658 49.4698 294.658 49.5471C294.658 49.6438 294.561 49.8081 294.368 50.0401C294.194 50.2528 293.972 50.4848 293.701 50.7361C293.45 50.9874 293.208 51.2291 292.976 51.4611C292.744 51.6738 292.58 51.8284 292.483 51.9251C292.657 52.2151 292.744 52.5244 292.744 52.8531C292.744 53.1818 292.599 53.5878 292.309 54.0711C292.019 54.5351 291.652 54.9991 291.207 55.4631C290.782 55.9271 290.337 56.3138 289.873 56.6231C289.409 56.9324 289.013 57.0871 288.684 57.0871ZM289.786 55.6081C289.96 55.6081 290.163 55.5114 290.395 55.3181C290.646 55.1248 290.888 54.8831 291.12 54.5931C291.352 54.3031 291.545 54.0228 291.7 53.7521C291.874 53.4621 291.961 53.2301 291.961 53.0561C291.961 52.8628 291.922 52.7178 291.845 52.6211C291.729 52.7371 291.545 52.9208 291.294 53.1721C291.062 53.4234 290.811 53.7038 290.54 54.0131C290.289 54.3031 290.066 54.5834 289.873 54.8541C289.699 55.1054 289.612 55.2988 289.612 55.4341C289.612 55.5501 289.67 55.6081 289.786 55.6081Z" fill="white"/>
<path d="M281.148 57.464C280.78 57.464 280.471 57.3287 280.22 57.058C279.988 56.7873 279.804 56.4587 279.669 56.072C279.533 55.666 279.437 55.26 279.379 54.854C279.34 54.448 279.321 54.1097 279.321 53.839C279.321 53.549 279.35 53.085 279.408 52.447C279.485 51.7897 279.601 51.0647 279.756 50.272C279.91 49.4793 280.104 48.7157 280.336 47.981C280.568 47.227 280.838 46.5987 281.148 46.096C281.476 45.5933 281.853 45.3227 282.279 45.284C282.337 45.11 282.424 44.965 282.54 44.849C282.656 44.7137 282.81 44.646 283.004 44.646C283.39 44.646 283.729 44.8103 284.019 45.139C284.309 45.4677 284.55 45.8737 284.744 46.357C284.937 46.8403 285.082 47.314 285.179 47.778C285.295 48.242 285.353 48.619 285.353 48.909C285.353 49.7983 285.266 50.678 285.092 51.548L285.324 51.577C285.884 51.577 286.319 51.49 286.629 51.316C286.938 51.142 287.18 50.9777 287.354 50.823C287.528 50.649 287.673 50.562 287.789 50.562C287.905 50.562 287.963 50.6297 287.963 50.765C287.963 50.997 287.837 51.2097 287.586 51.403C287.354 51.577 287.064 51.7413 286.716 51.896C286.368 52.0313 286.029 52.128 285.701 52.186C285.372 52.244 285.121 52.2537 284.947 52.215C284.85 52.621 284.686 53.1237 284.454 53.723C284.241 54.303 283.97 54.883 283.642 55.463C283.332 56.0237 282.965 56.4973 282.54 56.884C282.114 57.2707 281.65 57.464 281.148 57.464ZM284.309 50.968C284.425 50.2913 284.483 49.605 284.483 48.909C284.483 48.7543 284.444 48.4933 284.367 48.126C284.309 47.7393 284.212 47.3333 284.077 46.908C283.961 46.4827 283.816 46.1153 283.642 45.806C283.468 45.4967 283.284 45.342 283.091 45.342C282.994 45.342 282.917 45.4193 282.859 45.574C282.82 45.7093 282.791 45.864 282.772 46.038C282.772 46.212 282.772 46.328 282.772 46.386C282.772 47.1593 282.888 47.9713 283.12 48.822C283.371 49.6533 283.767 50.3687 284.309 50.968ZM281.235 56.71C281.525 56.71 281.824 56.5167 282.134 56.13C282.443 55.724 282.733 55.2407 283.004 54.68C283.294 54.1 283.535 53.549 283.729 53.027C283.922 52.505 284.048 52.1183 284.106 51.867C283.371 51.3643 282.82 50.6877 282.453 49.837C282.105 48.9863 281.931 48.1163 281.931 47.227C281.931 46.8403 281.96 46.473 282.018 46.125C281.612 46.821 281.273 47.6427 281.003 48.59C280.732 49.5373 280.529 50.504 280.394 51.49C280.278 52.476 280.22 53.375 280.22 54.187C280.22 54.3803 280.239 54.68 280.278 55.086C280.336 55.492 280.442 55.869 280.597 56.217C280.751 56.5457 280.964 56.71 281.235 56.71Z" fill="white"/>
<path d="M274.1 56.623C273.52 56.623 273.066 56.4297 272.737 56.043C272.408 55.637 272.176 55.1633 272.041 54.622C271.906 54.0613 271.838 53.5587 271.838 53.114C271.838 52.7853 271.886 52.273 271.983 51.577C272.08 50.8617 272.225 50.0787 272.418 49.228C272.631 48.3773 272.882 47.5557 273.172 46.763C273.462 45.9703 273.8 45.3227 274.187 44.82C274.574 44.298 274.999 44.037 275.463 44.037C275.792 44.037 276.033 44.1627 276.188 44.414C276.343 44.6653 276.439 44.9843 276.478 45.371C276.536 45.7383 276.565 46.1057 276.565 46.473C276.565 46.821 276.565 47.111 276.565 47.343C276.565 47.4397 276.497 47.546 276.362 47.662C276.246 47.7587 276.14 47.807 276.043 47.807C275.85 47.807 275.724 47.72 275.666 47.546C275.608 47.372 275.579 47.1787 275.579 46.966C275.579 46.7533 275.589 46.56 275.608 46.386C275.627 46.1927 275.637 46.0477 275.637 45.951C275.637 45.8543 275.618 45.6997 275.579 45.487C275.54 45.255 275.463 45.139 275.347 45.139C275.038 45.255 274.748 45.5643 274.477 46.067C274.206 46.5503 273.955 47.1303 273.723 47.807C273.51 48.4837 273.327 49.1797 273.172 49.895C273.037 50.6103 272.921 51.2677 272.824 51.867C272.747 52.447 272.708 52.882 272.708 53.172C272.708 53.4427 272.737 53.7907 272.795 54.216C272.872 54.622 273.008 54.9893 273.201 55.318C273.414 55.6467 273.704 55.811 274.071 55.811C274.477 55.811 274.883 55.6273 275.289 55.26C275.695 54.8733 276.082 54.3997 276.449 53.839C276.836 53.2783 277.184 52.7177 277.493 52.157C277.802 51.577 278.054 51.1033 278.247 50.736C278.46 50.3493 278.605 50.156 278.682 50.156C278.779 50.156 278.837 50.2043 278.856 50.301C278.875 50.3977 278.875 50.475 278.856 50.533L278.827 50.649C278.711 51.0743 278.498 51.6157 278.189 52.273C277.88 52.9303 277.503 53.5973 277.058 54.274C276.613 54.9313 276.13 55.492 275.608 55.956C275.105 56.4007 274.603 56.623 274.1 56.623Z" fill="white"/>
<path d="M258.721 57.0871C258.373 57.0871 258.199 56.9131 258.199 56.5651C258.199 56.2364 258.315 55.8691 258.547 55.4631C258.799 55.0378 259.098 54.6124 259.446 54.1871C259.794 53.7424 260.142 53.3364 260.49 52.9691C260.858 52.6018 261.157 52.3021 261.389 52.0701C261.119 51.9348 260.78 51.8188 260.374 51.7221C259.988 51.6061 259.591 51.4804 259.185 51.3451C258.799 51.1904 258.47 50.9971 258.199 50.7651C257.948 50.5138 257.822 50.1851 257.822 49.7791C257.822 49.3538 257.977 48.8704 258.286 48.3291C258.615 47.7878 259.031 47.2658 259.533 46.7631C260.036 46.2411 260.548 45.8158 261.07 45.4871C261.592 45.1391 262.056 44.9651 262.462 44.9651C262.714 44.9651 262.955 45.0328 263.187 45.1681C263.439 45.2841 263.564 45.4871 263.564 45.7771C263.564 45.8544 263.545 45.9608 263.506 46.0961C263.468 46.2314 263.4 46.2991 263.303 46.2991C263.168 46.2991 263.052 46.2314 262.955 46.0961C262.878 45.9414 262.781 45.8641 262.665 45.8641C262.337 45.8641 261.94 45.9994 261.476 46.2701C261.032 46.5408 260.597 46.8888 260.171 47.3141C259.746 47.7201 259.388 48.1454 259.098 48.5901C258.828 49.0348 258.692 49.4311 258.692 49.7791C258.692 50.0111 258.828 50.2141 259.098 50.3881C259.369 50.5621 259.688 50.7071 260.055 50.8231C260.442 50.9391 260.819 51.0551 261.186 51.1711C261.554 51.2678 261.824 51.3741 261.998 51.4901C262.095 51.3934 262.259 51.2388 262.491 51.0261C262.723 50.8134 262.984 50.5814 263.274 50.3301C263.564 50.0788 263.825 49.8661 264.057 49.6921C264.309 49.5181 264.483 49.4311 264.579 49.4311C264.657 49.4311 264.695 49.4698 264.695 49.5471C264.695 49.6438 264.599 49.8081 264.405 50.0401C264.231 50.2528 264.009 50.4848 263.738 50.7361C263.487 50.9874 263.245 51.2291 263.013 51.4611C262.781 51.6738 262.617 51.8284 262.52 51.9251C262.694 52.2151 262.781 52.5244 262.781 52.8531C262.781 53.1818 262.636 53.5878 262.346 54.0711C262.056 54.5351 261.689 54.9991 261.244 55.4631C260.819 55.9271 260.374 56.3138 259.91 56.6231C259.446 56.9324 259.05 57.0871 258.721 57.0871ZM259.823 55.6081C259.997 55.6081 260.2 55.5114 260.432 55.3181C260.684 55.1248 260.925 54.8831 261.157 54.5931C261.389 54.3031 261.583 54.0228 261.737 53.7521C261.911 53.4621 261.998 53.2301 261.998 53.0561C261.998 52.8628 261.96 52.7178 261.882 52.6211C261.766 52.7371 261.583 52.9208 261.331 53.1721C261.099 53.4234 260.848 53.7038 260.577 54.0131C260.326 54.3031 260.104 54.5834 259.91 54.8541C259.736 55.1054 259.649 55.2988 259.649 55.4341C259.649 55.5501 259.707 55.6081 259.823 55.6081Z" fill="white"/>
<path d="M248.545 57.8121C248.216 57.8121 247.975 57.6478 247.82 57.3191C247.665 57.0098 247.569 56.6521 247.53 56.2461C247.491 55.8401 247.472 55.5308 247.472 55.3181C247.472 54.5834 247.54 53.8101 247.675 52.9981C247.81 52.1668 247.984 51.3934 248.197 50.6781C248.294 50.3494 248.468 49.8758 248.719 49.2571C248.97 48.6191 249.27 47.9714 249.618 47.3141C249.985 46.6568 250.372 46.1058 250.778 45.6611C251.203 45.1971 251.629 44.9651 252.054 44.9651C252.383 44.9651 252.74 45.1101 253.127 45.4001C253.514 45.6901 253.707 46.0091 253.707 46.3571C253.707 46.4924 253.659 46.6084 253.562 46.7051C253.581 46.6858 253.63 46.6761 253.707 46.6761C254.074 46.6761 254.258 46.8694 254.258 47.2561C254.258 47.7008 254.19 48.2324 254.055 48.8511C253.939 49.4698 253.813 50.1271 253.678 50.8231C253.543 51.4998 253.475 52.1571 253.475 52.7951C253.475 53.0271 253.494 53.3074 253.533 53.6361C253.572 53.9454 253.659 54.2258 253.794 54.4771C253.949 54.7284 254.19 54.8541 254.519 54.8541C254.828 54.8541 255.157 54.6898 255.505 54.3611C255.853 54.0324 256.191 53.6264 256.52 53.1431C256.849 52.6598 257.158 52.1764 257.448 51.6931C257.738 51.2098 257.98 50.8038 258.173 50.4751C258.386 50.1464 258.531 49.9821 258.608 49.9821C258.743 49.9821 258.811 50.0691 258.811 50.2431C258.811 50.4751 258.705 50.8134 258.492 51.2581C258.299 51.6834 258.038 52.1571 257.709 52.6791C257.38 53.1818 257.013 53.6748 256.607 54.1581C256.22 54.6221 255.824 55.0088 255.418 55.3181C255.031 55.6081 254.683 55.7531 254.374 55.7531C253.871 55.7531 253.485 55.5501 253.214 55.1441C252.963 54.7188 252.789 54.2161 252.692 53.6361C252.615 53.0561 252.576 52.5148 252.576 52.0121C252.576 51.8381 252.576 51.6738 252.576 51.5191C252.576 51.3644 252.586 51.2291 252.605 51.1131C252.489 51.3838 252.325 51.7898 252.112 52.3311C251.899 52.8531 251.648 53.4331 251.358 54.0711C251.087 54.6898 250.788 55.2891 250.459 55.8691C250.15 56.4298 249.831 56.8938 249.502 57.2611C249.173 57.6284 248.854 57.8121 248.545 57.8121ZM248.777 56.5941C249.028 56.5941 249.309 56.3621 249.618 55.8981C249.927 55.4341 250.246 54.8444 250.575 54.1291C250.923 53.3944 251.252 52.6114 251.561 51.7801C251.87 50.9488 252.151 50.1658 252.402 49.4311C252.673 48.6771 252.895 48.0584 253.069 47.5751C253.243 47.0724 253.359 46.8018 253.417 46.7631L253.243 46.7921C253.108 46.7921 253.001 46.7244 252.924 46.5891C252.847 46.4344 252.75 46.2894 252.634 46.1541C252.518 46.0188 252.325 45.9511 252.054 45.9511C251.706 45.9511 251.368 46.1541 251.039 46.5601C250.71 46.9661 250.391 47.4591 250.082 48.0391C249.792 48.5998 249.541 49.1508 249.328 49.6921C249.135 50.2334 248.999 50.6394 248.922 50.9101C248.535 52.2441 248.342 53.6168 248.342 55.0281C248.342 55.1054 248.342 55.2794 248.342 55.5501C248.361 55.8014 248.4 56.0431 248.458 56.2751C248.535 56.4878 248.642 56.5941 248.777 56.5941Z" fill="white"/>
<path d="M239.093 56.797C238.861 56.797 238.687 56.6327 238.571 56.304C238.455 55.956 238.368 55.55 238.31 55.086C238.252 54.6027 238.214 54.158 238.194 53.752C238.194 53.3267 238.194 53.0464 238.194 52.911C238.194 51.7317 238.243 50.475 238.339 49.141C238.455 47.7877 238.629 46.4247 238.861 45.052C239.113 43.66 239.441 42.3357 239.847 41.079C240.253 39.803 240.756 38.6527 241.355 37.628C241.491 37.396 241.694 37.28 241.964 37.28C242.08 37.28 242.187 37.3187 242.283 37.396C242.38 37.454 242.428 37.5507 242.428 37.686C242.428 37.802 242.39 37.9374 242.312 38.092C241.752 39.3874 241.22 40.6537 240.717 41.891C240.215 43.109 239.809 44.414 239.499 45.806C239.093 47.662 238.89 49.547 238.89 51.461C238.89 52.389 238.948 53.3074 239.064 54.216C239.161 53.9067 239.354 53.433 239.644 52.795C239.934 52.157 240.273 51.4514 240.659 50.678C241.065 49.9047 241.491 49.1604 241.935 48.445C242.399 47.7297 242.844 47.1497 243.269 46.705C243.695 46.241 244.072 46.009 244.4 46.009C244.748 46.009 244.971 46.183 245.067 46.531C245.183 46.8597 245.241 47.1594 245.241 47.43C245.241 48.2034 245.183 48.9767 245.067 49.75C244.951 50.5234 244.893 51.3064 244.893 52.099C244.893 52.1764 244.903 52.389 244.922 52.737C244.942 53.0657 244.98 53.3847 245.038 53.694C245.116 54.0034 245.212 54.158 245.328 54.158C245.502 54.158 245.676 54.0517 245.85 53.839C246.024 53.607 246.179 53.3557 246.314 53.085C246.469 52.795 246.604 52.5437 246.72 52.331C246.836 52.099 246.923 51.983 246.981 51.983C247.039 51.983 247.078 52.0314 247.097 52.128C247.117 52.2054 247.126 52.2634 247.126 52.302C247.126 52.5534 247.03 52.9014 246.836 53.346C246.662 53.7714 246.43 54.1677 246.14 54.535C245.85 54.883 245.56 55.057 245.27 55.057C245 55.057 244.777 54.941 244.603 54.709C244.449 54.477 244.333 54.1967 244.255 53.868C244.178 53.5394 244.12 53.2204 244.081 52.911C244.062 52.6017 244.052 52.36 244.052 52.186C244.052 51.49 244.081 50.794 244.139 50.098C244.217 49.402 244.255 48.706 244.255 48.01V47.778C244.255 47.662 244.246 47.5557 244.226 47.459C244.207 47.343 244.159 47.285 244.081 47.285C243.965 47.285 243.801 47.4204 243.588 47.691C243.376 47.9424 243.231 48.1164 243.153 48.213C242.631 48.8704 242.129 49.6534 241.645 50.562C241.181 51.4707 240.775 52.4084 240.427 53.375C240.079 54.3224 239.828 55.2117 239.673 56.043C239.654 56.1977 239.596 56.362 239.499 56.536C239.422 56.71 239.287 56.797 239.093 56.797Z" fill="white"/>
<path d="M233.206 56.623C232.626 56.623 232.171 56.4297 231.843 56.043C231.514 55.637 231.282 55.1633 231.147 54.622C231.011 54.0613 230.944 53.5587 230.944 53.114C230.944 52.7853 230.992 52.273 231.089 51.577C231.185 50.8617 231.33 50.0787 231.524 49.228C231.736 48.3773 231.988 47.5557 232.278 46.763C232.568 45.9703 232.906 45.3227 233.293 44.82C233.679 44.298 234.105 44.037 234.569 44.037C234.897 44.037 235.139 44.1627 235.294 44.414C235.448 44.6653 235.545 44.9843 235.584 45.371C235.642 45.7383 235.671 46.1057 235.671 46.473C235.671 46.821 235.671 47.111 235.671 47.343C235.671 47.4397 235.603 47.546 235.468 47.662C235.352 47.7587 235.245 47.807 235.149 47.807C234.955 47.807 234.83 47.72 234.772 47.546C234.714 47.372 234.685 47.1787 234.685 46.966C234.685 46.7533 234.694 46.56 234.714 46.386C234.733 46.1927 234.743 46.0477 234.743 45.951C234.743 45.8543 234.723 45.6997 234.685 45.487C234.646 45.255 234.569 45.139 234.453 45.139C234.143 45.255 233.853 45.5643 233.583 46.067C233.312 46.5503 233.061 47.1303 232.829 47.807C232.616 48.4837 232.432 49.1797 232.278 49.895C232.142 50.6103 232.026 51.2677 231.93 51.867C231.852 52.447 231.814 52.882 231.814 53.172C231.814 53.4427 231.843 53.7907 231.901 54.216C231.978 54.622 232.113 54.9893 232.307 55.318C232.519 55.6467 232.809 55.811 233.177 55.811C233.583 55.811 233.989 55.6273 234.395 55.26C234.801 54.8733 235.187 54.3997 235.555 53.839C235.941 53.2783 236.289 52.7177 236.599 52.157C236.908 51.577 237.159 51.1033 237.353 50.736C237.565 50.3493 237.71 50.156 237.788 50.156C237.884 50.156 237.942 50.2043 237.962 50.301C237.981 50.3977 237.981 50.475 237.962 50.533L237.933 50.649C237.817 51.0743 237.604 51.6157 237.295 52.273C236.985 52.9303 236.608 53.5973 236.164 54.274C235.719 54.9313 235.236 55.492 234.714 55.956C234.211 56.4007 233.708 56.623 233.206 56.623Z" fill="white"/>
<path d="M222.943 56.333C222.633 56.333 222.382 56.2073 222.189 55.956C222.015 55.7047 221.879 55.3953 221.783 55.028C221.686 54.6413 221.618 54.274 221.58 53.926C221.56 53.5587 221.551 53.2687 221.551 53.056C221.551 52.8627 221.551 52.6693 221.551 52.476C221.57 52.2827 221.589 52.0893 221.609 51.896C221.686 51.2967 221.792 50.707 221.928 50.127C222.063 49.5277 222.169 48.9283 222.247 48.329C222.285 48.0197 222.314 47.72 222.334 47.43C222.353 47.14 222.372 46.8403 222.392 46.531C222.411 46.4343 222.44 46.3473 222.479 46.27C222.517 46.1733 222.595 46.125 222.711 46.125C222.923 46.125 223.049 46.2217 223.088 46.415C223.146 46.589 223.175 46.7533 223.175 46.908C223.175 47.604 223.107 48.2903 222.972 48.967C222.836 49.6437 222.701 50.3203 222.566 50.997C222.43 51.6737 222.363 52.36 222.363 53.056C222.363 53.1333 222.363 53.3073 222.363 53.578C222.382 53.8293 222.411 54.1097 222.45 54.419C222.488 54.709 222.546 54.9603 222.624 55.173C222.72 55.3857 222.836 55.492 222.972 55.492C223.146 55.492 223.368 55.289 223.639 54.883C223.929 54.477 224.219 53.9937 224.509 53.433C224.818 52.853 225.089 52.3213 225.321 51.838C225.572 51.3353 225.736 50.997 225.814 50.823C226.084 50.2237 226.258 49.6727 226.336 49.17C226.432 48.6673 226.5 48.2033 226.539 47.778C226.577 47.3333 226.674 46.8983 226.829 46.473C226.925 46.241 227.07 46.125 227.264 46.125C227.554 46.125 227.699 46.299 227.699 46.647C227.699 47.2463 227.631 47.9713 227.496 48.822C227.36 49.6533 227.293 50.475 227.293 51.287V51.925C227.293 52.0603 227.293 52.273 227.293 52.563C227.293 52.8337 227.312 53.1237 227.351 53.433C227.409 53.7423 227.486 54.0033 227.583 54.216C227.699 54.4287 227.863 54.535 228.076 54.535C228.327 54.535 228.578 54.39 228.83 54.1C229.081 53.81 229.313 53.4717 229.526 53.085C229.758 52.6983 229.951 52.36 230.106 52.07C230.26 51.78 230.376 51.635 230.454 51.635C230.57 51.635 230.628 51.7123 230.628 51.867C230.628 52.041 230.531 52.3213 230.338 52.708C230.164 53.0753 229.932 53.462 229.642 53.868C229.371 54.274 229.081 54.622 228.772 54.912C228.482 55.202 228.23 55.347 228.018 55.347C227.573 55.347 227.235 55.1633 227.003 54.796C226.79 54.4287 226.635 53.9743 226.539 53.433C226.461 52.8917 226.423 52.3697 226.423 51.867C226.423 51.345 226.423 50.939 226.423 50.649C226.345 50.881 226.22 51.229 226.046 51.693C225.872 52.1377 225.669 52.6307 225.437 53.172C225.205 53.694 224.953 54.1967 224.683 54.68C224.412 55.1633 224.122 55.5597 223.813 55.869C223.523 56.1783 223.233 56.333 222.943 56.333Z" fill="white"/>
<path d="M208.381 57.4061C208.207 57.4061 208.091 57.3481 208.033 57.2321C207.975 57.1161 207.946 56.9904 207.946 56.8551V56.7971C207.946 55.7531 208.023 54.7767 208.178 53.8681C208.332 52.9594 208.477 52.0411 208.613 51.1131C208.767 50.1657 208.845 49.1314 208.845 48.0101C208.845 47.7007 208.825 47.3431 208.787 46.9371C208.767 46.5117 208.7 46.0961 208.584 45.6901C208.487 45.2841 208.332 44.9651 208.12 44.7331C208.042 44.6557 208.004 44.5591 208.004 44.4431C208.004 44.2691 208.081 44.1144 208.236 43.9791C208.39 43.8437 208.555 43.7664 208.729 43.7471L208.99 43.8631C209.222 44.0757 209.386 44.4527 209.483 44.9941C209.579 45.5161 209.637 46.0477 209.657 46.5891C209.676 47.1304 209.686 47.5557 209.686 47.8651C209.686 48.2904 209.676 48.7157 209.657 49.1411C209.637 49.5664 209.608 50.0014 209.57 50.4461C209.666 50.1947 209.802 49.8757 209.976 49.4891C210.15 49.0831 210.353 48.6867 210.585 48.3001C210.836 47.8941 211.097 47.5557 211.368 47.2851C211.658 47.0144 211.967 46.8791 212.296 46.8791C212.624 46.8791 212.876 47.0627 213.05 47.4301C213.224 47.7781 213.34 48.2131 213.398 48.7351C213.475 49.2571 213.523 49.7597 213.543 50.2431C213.562 50.7071 213.572 51.0551 213.572 51.2871C213.688 50.9971 213.871 50.5814 214.123 50.0401C214.393 49.4987 214.703 48.9091 215.051 48.2711C215.418 47.6331 215.805 47.0241 216.211 46.4441C216.617 45.8641 217.013 45.3904 217.4 45.0231C217.786 44.6364 218.144 44.4431 218.473 44.4431C218.743 44.4431 218.908 44.5881 218.966 44.8781C219.043 45.1681 219.082 45.4097 219.082 45.6031C219.082 46.3764 219.004 47.1594 218.85 47.9521C218.714 48.7447 218.569 49.5471 218.415 50.3591C218.279 51.1711 218.212 51.9927 218.212 52.8241C218.212 52.9207 218.212 53.1334 218.212 53.4621C218.231 53.7907 218.27 54.1001 218.328 54.3901C218.405 54.6607 218.531 54.7961 218.705 54.7961C218.995 54.7961 219.294 54.6511 219.604 54.3611C219.913 54.0711 220.193 53.7424 220.445 53.3751C220.715 52.9884 220.938 52.6501 221.112 52.3601C221.305 52.0507 221.431 51.8961 221.489 51.8961C221.566 51.9734 221.605 52.0701 221.605 52.1861C221.605 52.3794 221.498 52.6694 221.286 53.0561C221.073 53.4427 220.802 53.8391 220.474 54.2451C220.164 54.6511 219.845 54.9991 219.517 55.2891C219.188 55.5597 218.917 55.6951 218.705 55.6951C218.337 55.6951 218.047 55.5114 217.835 55.1441C217.641 54.7767 217.506 54.3611 217.429 53.8971C217.371 53.4331 217.342 53.0754 217.342 52.8241C217.342 52.0701 217.39 51.3257 217.487 50.5911C217.583 49.8371 217.699 49.0927 217.835 48.3581C217.912 47.9714 218.009 47.5654 218.125 47.1401C218.26 46.7147 218.328 46.3087 218.328 45.9221C218.328 45.8061 218.289 45.6901 218.212 45.5741L218.154 45.5451C218.038 45.5451 217.883 45.6611 217.69 45.8931C217.496 46.1057 217.313 46.3377 217.139 46.5891C216.984 46.8404 216.868 47.0144 216.791 47.1111C216.056 48.1551 215.466 49.2377 215.022 50.3591C214.577 51.4611 214.074 52.5824 213.514 53.7231C213.475 53.8004 213.417 53.8777 213.34 53.9551C213.282 54.0324 213.204 54.0711 213.108 54.0711C212.914 54.0711 212.779 53.8874 212.702 53.5201C212.644 53.1334 212.615 52.6984 212.615 52.2151C212.615 51.7704 212.624 51.3547 212.644 50.9681C212.682 50.5621 212.702 50.2817 212.702 50.1271C212.702 50.0497 212.692 49.8854 212.673 49.6341C212.673 49.3827 212.653 49.1121 212.615 48.8221C212.595 48.5321 212.557 48.2807 212.499 48.0681C212.46 47.8554 212.392 47.7491 212.296 47.7491C212.102 47.7491 211.948 47.8264 211.832 47.9811C211.735 48.1357 211.638 48.2904 211.542 48.4451C210.981 49.3924 210.527 50.3687 210.179 51.3741C209.869 52.3021 209.647 53.2591 209.512 54.2451C209.376 55.2117 209.144 56.1494 208.816 57.0581C208.758 57.2901 208.613 57.4061 208.381 57.4061Z" fill="white"/>
<path d="M196.467 56.9999C195.945 56.9999 195.539 56.7679 195.249 56.3039C194.978 55.8399 194.794 55.2792 194.698 54.6219C194.601 53.9452 194.553 53.3169 194.553 52.7369C194.553 52.4662 194.553 52.2246 194.553 52.0119C194.572 51.7799 194.591 51.5866 194.611 51.4319H194.524C194.292 51.4319 194.176 51.3449 194.176 51.1709C194.214 51.0742 194.282 50.9969 194.379 50.9389C194.495 50.8616 194.601 50.8132 194.698 50.7939C194.794 49.9432 194.978 49.0732 195.249 48.1839C195.519 47.2946 195.887 46.4922 196.351 45.7769V45.6029C196.351 45.4096 196.467 45.2936 196.699 45.2549C196.795 45.1582 196.892 45.0519 196.989 44.9359C197.105 44.8006 197.23 44.7329 197.366 44.7329C197.52 44.7329 197.636 44.8006 197.714 44.9359C197.81 45.0519 197.82 45.1776 197.743 45.3129C198.11 45.3902 198.439 45.5449 198.729 45.7769C199.038 45.9896 199.193 46.3086 199.193 46.7339C199.193 47.2946 198.98 47.8746 198.555 48.4739C198.149 49.0539 197.656 49.5856 197.076 50.0689C196.515 50.5329 196.003 50.8809 195.539 51.1129C195.481 51.5769 195.442 52.0506 195.423 52.5339C195.423 52.9979 195.423 53.4619 195.423 53.9259C195.423 54.1579 195.432 54.4479 195.452 54.7959C195.49 55.1439 195.577 55.4532 195.713 55.7239C195.867 55.9946 196.119 56.1299 196.467 56.1299C196.834 56.1299 197.192 55.9656 197.54 55.6369C197.907 55.3082 198.255 54.8926 198.584 54.3899C198.932 53.8679 199.251 53.3266 199.541 52.7659C199.831 52.2052 200.082 51.6736 200.295 51.1709C200.507 50.6682 200.662 50.2816 200.759 50.0109C200.797 49.9142 200.846 49.8272 200.904 49.7499C200.962 49.6532 201.049 49.6049 201.165 49.6049C201.319 49.6049 201.397 49.7016 201.397 49.8949C201.397 50.2042 201.29 50.6489 201.078 51.2289C200.865 51.7896 200.575 52.3986 200.208 53.0559C199.86 53.7132 199.463 54.3416 199.019 54.9409C198.593 55.5402 198.158 56.0332 197.714 56.4199C197.269 56.8066 196.853 56.9999 196.467 56.9999ZM195.684 50.2139C196.051 49.9819 196.418 49.6919 196.786 49.3439C197.153 48.9959 197.462 48.5996 197.714 48.1549C197.965 47.7102 198.091 47.2656 198.091 46.8209C198.091 46.5889 197.975 46.4246 197.743 46.3279C197.511 46.2119 197.308 46.1442 197.134 46.1249C196.766 46.7242 196.457 47.3816 196.206 48.0969C195.974 48.8122 195.8 49.5179 195.684 50.2139Z" fill="white"/>
<path d="M186.777 57.116C186.641 57.116 186.535 57.0677 186.458 56.971C186.4 56.855 186.371 56.7294 186.371 56.594C186.371 55.5114 186.429 54.4287 186.545 53.346C186.68 52.244 186.748 51.1517 186.748 50.069C186.748 49.953 186.738 49.7307 186.719 49.402C186.719 49.054 186.699 48.6867 186.661 48.3C186.641 47.894 186.603 47.5364 186.545 47.227C186.506 46.8984 186.448 46.6954 186.371 46.618C186.293 46.56 186.216 46.4924 186.139 46.415C186.081 46.3377 186.052 46.241 186.052 46.125C186.052 46.009 186.1 45.922 186.197 45.864C186.313 45.7867 186.429 45.748 186.545 45.748C186.873 45.748 187.105 45.9027 187.241 46.212C187.395 46.502 187.492 46.8597 187.531 47.285C187.589 47.7104 187.618 48.1164 187.618 48.503C187.618 50.3204 187.56 52.1474 187.444 53.984C187.521 53.7714 187.676 53.3944 187.908 52.853C188.14 52.3117 188.42 51.7027 188.749 51.026C189.077 50.3494 189.416 49.7017 189.764 49.083C190.131 48.445 190.469 47.923 190.779 47.517C191.088 47.0917 191.339 46.879 191.533 46.879C191.803 46.879 191.997 47.053 192.113 47.401C192.248 47.7297 192.316 48.0004 192.316 48.213C192.316 49.1024 192.267 49.9917 192.171 50.881C192.093 51.7704 192.055 52.6694 192.055 53.578C192.055 53.694 192.064 53.9164 192.084 54.245C192.122 54.5544 192.18 54.854 192.258 55.144C192.354 55.4147 192.499 55.55 192.693 55.55C192.847 55.55 193.05 55.376 193.302 55.028C193.553 54.68 193.814 54.274 194.085 53.81C194.355 53.3267 194.597 52.8724 194.81 52.447C195.022 52.0217 195.167 51.722 195.245 51.548C195.264 51.5094 195.283 51.4707 195.303 51.432C195.322 51.374 195.351 51.345 195.39 51.345C195.486 51.345 195.544 51.4224 195.564 51.577C195.583 51.7124 195.593 51.7994 195.593 51.838C195.593 52.0314 195.486 52.3697 195.274 52.853C195.061 53.3364 194.79 53.8487 194.462 54.39C194.152 54.9314 193.824 55.3954 193.476 55.782C193.147 56.1687 192.847 56.362 192.577 56.362C192.19 56.362 191.9 56.2074 191.707 55.898C191.533 55.5887 191.417 55.2407 191.359 54.854C191.301 54.448 191.272 54.1097 191.272 53.839C191.272 53.201 191.301 52.563 191.359 51.925C191.436 51.287 191.475 50.649 191.475 50.011C191.475 49.953 191.465 49.808 191.446 49.576C191.446 49.344 191.436 49.1217 191.417 48.909C191.397 48.6964 191.349 48.59 191.272 48.59C191.078 48.59 190.827 48.8317 190.518 49.315C190.228 49.7984 189.909 50.4074 189.561 51.142C189.232 51.8767 188.903 52.6404 188.575 53.433C188.246 54.2064 187.956 54.9024 187.705 55.521C187.473 56.1397 187.308 56.5554 187.212 56.768C187.173 56.8454 187.115 56.9227 187.038 57C186.98 57.0774 186.893 57.116 186.777 57.116Z" fill="white"/>
<path d="M181.655 56.9999C181.133 56.9999 180.727 56.7679 180.437 56.3039C180.167 55.8399 179.983 55.2792 179.886 54.6219C179.79 53.9452 179.741 53.3169 179.741 52.7369C179.741 52.4662 179.741 52.2246 179.741 52.0119C179.761 51.7799 179.78 51.5866 179.799 51.4319H179.712C179.48 51.4319 179.364 51.3449 179.364 51.1709C179.403 51.0742 179.471 50.9969 179.567 50.9389C179.683 50.8616 179.79 50.8132 179.886 50.7939C179.983 49.9432 180.167 49.0732 180.437 48.1839C180.708 47.2946 181.075 46.4922 181.539 45.7769V45.6029C181.539 45.4096 181.655 45.2936 181.887 45.2549C181.984 45.1582 182.081 45.0519 182.177 44.9359C182.293 44.8006 182.419 44.7329 182.554 44.7329C182.709 44.7329 182.825 44.8006 182.902 44.9359C182.999 45.0519 183.009 45.1776 182.931 45.3129C183.299 45.3902 183.627 45.5449 183.917 45.7769C184.227 45.9896 184.381 46.3086 184.381 46.7339C184.381 47.2946 184.169 47.8746 183.743 48.4739C183.337 49.0539 182.844 49.5856 182.264 50.0689C181.704 50.5329 181.191 50.8809 180.727 51.1129C180.669 51.5769 180.631 52.0506 180.611 52.5339C180.611 52.9979 180.611 53.4619 180.611 53.9259C180.611 54.1579 180.621 54.4479 180.64 54.7959C180.679 55.1439 180.766 55.4532 180.901 55.7239C181.056 55.9946 181.307 56.1299 181.655 56.1299C182.023 56.1299 182.38 55.9656 182.728 55.6369C183.096 55.3082 183.444 54.8926 183.772 54.3899C184.12 53.8679 184.439 53.3266 184.729 52.7659C185.019 52.2052 185.271 51.6736 185.483 51.1709C185.696 50.6682 185.851 50.2816 185.947 50.0109C185.986 49.9142 186.034 49.8272 186.092 49.7499C186.15 49.6532 186.237 49.6049 186.353 49.6049C186.508 49.6049 186.585 49.7016 186.585 49.8949C186.585 50.2042 186.479 50.6489 186.266 51.2289C186.054 51.7896 185.764 52.3986 185.396 53.0559C185.048 53.7132 184.652 54.3416 184.207 54.9409C183.782 55.5402 183.347 56.0332 182.902 56.4199C182.458 56.8066 182.042 56.9999 181.655 56.9999ZM180.872 50.2139C181.24 49.9819 181.607 49.6919 181.974 49.3439C182.342 48.9959 182.651 48.5996 182.902 48.1549C183.154 47.7102 183.279 47.2656 183.279 46.8209C183.279 46.5889 183.163 46.4246 182.931 46.3279C182.699 46.2119 182.496 46.1442 182.322 46.1249C181.955 46.7242 181.646 47.3816 181.394 48.0969C181.162 48.8122 180.988 49.5179 180.872 50.2139Z" fill="white"/>
<path d="M176.507 45.6029C176.372 45.6029 176.246 45.5739 176.13 45.5159C176.014 45.4386 175.956 45.3323 175.956 45.1969C175.956 45.0423 176.024 44.8103 176.159 44.5009C176.294 44.1723 176.468 43.8436 176.681 43.5149C176.894 43.1863 177.116 42.9059 177.348 42.6739C177.599 42.4419 177.822 42.3259 178.015 42.3259C178.17 42.3259 178.247 42.4226 178.247 42.6159C178.247 42.8479 178.121 43.0316 177.87 43.1669C177.715 43.2636 177.58 43.4473 177.464 43.7179C177.367 43.9886 177.28 44.2689 177.203 44.5589C177.145 44.8489 177.087 45.0809 177.029 45.2549C176.971 45.4869 176.797 45.6029 176.507 45.6029ZM175.927 56.7099C175.482 56.7099 175.154 56.5263 174.941 56.1589C174.728 55.7723 174.593 55.3373 174.535 54.8539C174.477 54.3513 174.448 53.9453 174.448 53.6359C174.448 53.4426 174.467 53.0849 174.506 52.5629C174.564 52.0409 174.632 51.4609 174.709 50.8229C174.806 50.1656 174.912 49.5276 175.028 48.9089C175.163 48.2903 175.318 47.7779 175.492 47.3719C175.666 46.9659 175.85 46.7629 176.043 46.7629C176.198 46.7629 176.333 46.8113 176.449 46.9079C176.565 47.0046 176.623 47.1303 176.623 47.2849C176.623 47.5169 176.555 47.8843 176.42 48.3869C176.285 48.8896 176.12 49.4599 175.927 50.0979C175.753 50.7359 175.589 51.3836 175.434 52.0409C175.299 52.6789 175.231 53.2589 175.231 53.7809C175.231 53.9163 175.241 54.1483 175.26 54.4769C175.299 54.8056 175.366 55.1149 175.463 55.4049C175.56 55.6756 175.714 55.8109 175.927 55.8109C176.217 55.8109 176.536 55.5983 176.884 55.1729C177.232 54.7476 177.58 54.2256 177.928 53.6069C178.295 52.9689 178.634 52.3406 178.943 51.7219C179.252 51.0839 179.513 50.5523 179.726 50.1269C179.939 49.7016 180.084 49.4889 180.161 49.4889C180.258 49.4889 180.316 49.5276 180.335 49.6049C180.374 49.6629 180.393 49.7306 180.393 49.8079C180.393 50.0593 180.287 50.4653 180.074 51.0259C179.861 51.5673 179.581 52.1666 179.233 52.8239C178.885 53.4619 178.508 54.0806 178.102 54.6799C177.696 55.2599 177.3 55.7433 176.913 56.1299C176.526 56.5166 176.198 56.7099 175.927 56.7099Z" fill="white"/>
<path d="M169.973 56.5069C169.548 56.5069 169.21 56.3619 168.958 56.0719C168.707 55.7626 168.514 55.3856 168.378 54.9409C168.262 54.4769 168.185 54.0226 168.146 53.5779C168.108 53.1139 168.088 52.7369 168.088 52.4469C168.088 51.4029 168.127 50.3493 168.204 49.2859C168.301 48.2226 168.398 47.1689 168.494 46.1249C168.166 46.2603 167.847 46.4149 167.537 46.5889C167.247 46.7629 166.977 46.9853 166.725 47.2559C166.687 47.2946 166.638 47.3333 166.58 47.3719C166.542 47.4106 166.484 47.4299 166.406 47.4299C166.271 47.4299 166.136 47.3623 166 47.2269C165.884 47.0916 165.826 46.9563 165.826 46.8209C165.826 46.6469 165.942 46.4729 166.174 46.2989C166.406 46.1056 166.687 45.9316 167.015 45.7769C167.363 45.6029 167.682 45.4579 167.972 45.3419C168.282 45.2259 168.494 45.1486 168.61 45.1099C168.63 44.9553 168.668 44.6653 168.726 44.2399C168.804 43.7953 168.891 43.3023 168.987 42.7609C169.084 42.2003 169.19 41.6686 169.306 41.1659C169.442 40.6439 169.577 40.2186 169.712 39.8899C169.848 39.5419 169.983 39.3679 170.118 39.3679C170.254 39.3679 170.389 39.4163 170.524 39.5129C170.66 39.6096 170.727 39.7256 170.727 39.8609C170.727 39.9189 170.679 40.1606 170.582 40.5859C170.486 41.0113 170.36 41.5139 170.205 42.0939C170.07 42.6546 169.944 43.1863 169.828 43.6889C169.732 44.1916 169.664 44.5396 169.625 44.7329C170.476 44.4816 171.288 44.2786 172.061 44.1239C172.854 43.9693 173.685 43.8919 174.555 43.8919C174.633 43.8919 174.778 43.8919 174.99 43.8919C175.203 43.8919 175.406 43.9016 175.599 43.9209C175.812 43.9403 175.918 43.9789 175.918 44.0369C175.725 44.1143 175.512 44.1723 175.28 44.2109C175.068 44.2496 174.855 44.2786 174.642 44.2979C173.714 44.3753 172.835 44.5493 172.003 44.8199C171.191 45.0906 170.36 45.3903 169.509 45.7189C169.374 46.8209 169.258 47.9423 169.161 49.0829C169.065 50.2043 169.016 51.3159 169.016 52.4179C169.016 52.6306 169.026 52.9206 169.045 53.2879C169.065 53.6359 169.103 53.9936 169.161 54.3609C169.219 54.7089 169.316 55.0086 169.451 55.2599C169.587 55.5113 169.78 55.6369 170.031 55.6369C170.36 55.6369 170.698 55.4533 171.046 55.0859C171.394 54.6993 171.742 54.2353 172.09 53.6939C172.438 53.1333 172.757 52.5726 173.047 52.0119C173.337 51.4513 173.589 50.9776 173.801 50.5909C174.033 50.2043 174.188 50.0013 174.265 49.9819V50.0689C174.265 50.3589 174.169 50.7649 173.975 51.2869C173.782 51.8089 173.521 52.3696 173.192 52.9689C172.883 53.5489 172.535 54.1096 172.148 54.6509C171.781 55.1923 171.404 55.6369 171.017 55.9849C170.65 56.3329 170.302 56.5069 169.973 56.5069Z" fill="white"/>
<defs>
<linearGradient id="paint0_linear_223_140" x1="147.426" y1="41.9684" x2="147.426" y2="57.1799" gradientUnits="userSpaceOnUse">
<stop offset="0.3" stop-color="#F0DC26"/>
<stop offset="0.895" stop-color="#8D8329"/>
</linearGradient>
<linearGradient id="paint1_linear_223_140" x1="137.574" y1="36.653" x2="137.574" y2="56.8408" gradientUnits="userSpaceOnUse">
<stop offset="0.3" stop-color="#F0DC26"/>
<stop offset="0.895" stop-color="#8D8329"/>
</linearGradient>
<linearGradient id="paint2_linear_223_140" x1="132.824" y1="36.653" x2="132.824" y2="56.8408" gradientUnits="userSpaceOnUse">
<stop offset="0.3" stop-color="#F0DC26"/>
<stop offset="0.895" stop-color="#8D8329"/>
</linearGradient>
<linearGradient id="paint3_linear_223_140" x1="128.075" y1="36.653" x2="128.075" y2="56.8408" gradientUnits="userSpaceOnUse">
<stop offset="0.3" stop-color="#F0DC26"/>
<stop offset="0.895" stop-color="#8D8329"/>
</linearGradient>
<linearGradient id="paint4_linear_223_140" x1="121.847" y1="0" x2="121.847" y2="56.869" gradientUnits="userSpaceOnUse">
<stop offset="0.3" stop-color="#F0DC26"/>
<stop offset="0.895" stop-color="#8D8329"/>
</linearGradient>
<linearGradient id="paint5_linear_223_140" x1="110.774" y1="41.9684" x2="110.774" y2="57.1799" gradientUnits="userSpaceOnUse">
<stop offset="0.3" stop-color="#F0DC26"/>
<stop offset="0.895" stop-color="#8D8329"/>
</linearGradient>
<linearGradient id="paint6_linear_223_140" x1="95.8721" y1="41.9684" x2="95.8721" y2="57.1799" gradientUnits="userSpaceOnUse">
<stop offset="0.3" stop-color="#F0DC26"/>
<stop offset="0.895" stop-color="#8D8329"/>
</linearGradient>
<linearGradient id="paint7_linear_223_140" x1="74.0069" y1="41.9684" x2="74.0069" y2="57.1799" gradientUnits="userSpaceOnUse">
<stop offset="0.3" stop-color="#F0DC26"/>
<stop offset="0.895" stop-color="#8D8329"/>
</linearGradient>
<linearGradient id="paint8_linear_223_140" x1="59.2038" y1="41.9684" x2="59.2038" y2="56.8407" gradientUnits="userSpaceOnUse">
<stop offset="0.3" stop-color="#F0DC26"/>
<stop offset="0.895" stop-color="#8D8329"/>
</linearGradient>
<linearGradient id="paint9_linear_223_140" x1="49.4925" y1="36.653" x2="49.4925" y2="56.8408" gradientUnits="userSpaceOnUse">
<stop offset="0.3" stop-color="#F0DC26"/>
<stop offset="0.895" stop-color="#8D8329"/>
</linearGradient>
<linearGradient id="paint10_linear_223_140" x1="39.793" y1="41.9684" x2="39.793" y2="57.1799" gradientUnits="userSpaceOnUse">
<stop offset="0.3" stop-color="#F0DC26"/>
<stop offset="0.895" stop-color="#8D8329"/>
</linearGradient>
<linearGradient id="paint11_linear_223_140" x1="29.8656" y1="42.2201" x2="29.8656" y2="56.8407" gradientUnits="userSpaceOnUse">
<stop offset="0.3" stop-color="#F0DC26"/>
<stop offset="0.895" stop-color="#8D8329"/>
</linearGradient>
<linearGradient id="paint12_linear_223_140" x1="10.3899" y1="41.9684" x2="10.3899" y2="57.1799" gradientUnits="userSpaceOnUse">
<stop offset="0.3" stop-color="#F0DC26"/>
<stop offset="0.895" stop-color="#8D8329"/>
</linearGradient>
<linearGradient id="paint13_linear_223_140" x1="0.537211" y1="36.653" x2="0.537211" y2="56.8408" gradientUnits="userSpaceOnUse">
<stop offset="0.3" stop-color="#F0DC26"/>
<stop offset="0.895" stop-color="#8D8329"/>
</linearGradient>
</defs>
</svg>
